<?xml version="1.0" standalone="no"?>
<!DOCTYPE svg PUBLIC "-//W3C//DTD SVG 1.1//EN"
  "http://www.w3.org/Graphics/SVG/1.1/DTD/svg11.dtd">
<svg width="76mm" height="75.99999999999997mm" viewBox="160 -207.99999999999994 76 75.99999999999997" xmlns="http://www.w3.org/2000/svg" version="1.1">
	<title>svgOutput</title>
	<desc>made with tinkercad</desc>
<path d="M 169 -132.99999999999997 L 169 -133.04956054687497 L 169 -133.08064270019528 L 168.68600463867188 -133.03399658203122 L 168 -132.99999999999997 L 167.31399536132812 -133.03399658203122 L 166.63400268554688 -133.1349945068359 L 165.96800231933594 -133.30099487304685 L 165.93499755859375 -133.31283569335935 L 165.3209991455078 -133.53300476074216 L 164.6999969482422 -133.82699584960935 L 164.11099243164062 -134.17999267578122 L 163.83999633789062 -134.38079833984372 L 163.5590057373047 -134.58900451660153 L 163.0500030517578 -135.05000305175778 L 162.58900451660156 -135.55900573730466 L 162.17999267578125 -136.1109924316406 L 161.82699584960938 -136.69999694824216 L 161.5330047607422 -137.32099914550778 L 161.30099487304688 -137.9680023193359 L 161.13499450683594 -138.63400268554685 L 161.0414276123047 -139.26400756835935 L 161.03399658203125 -139.3139953613281 L 161 -139.99999999999997 L 161 -140.45709228515622 L 161 -140.8243713378906 L 161 -141.19256591796872 L 161 -141.55317687988278 L 161 -141.92010498046872 L 161 -142.29643249511716 L 161 -142.6865539550781 L 161 -143.09332275390622 L 161 -143.5149230957031 L 161 -146.99999999999997 L 161 -192.99999999999994 L 161 -196.60800170898432 L 161 -199.99999999999994 L 161.03399658203125 -200.68600463867182 L 161.13499450683594 -201.36599731445307 L 161.30099487304688 -202.031997680664 L 161.5330047607422 -202.67900085449213 L 161.82699584960938 -203.30000305175776 L 162.17999267578125 -203.88900756835932 L 162.58900451660156 -204.44099426269526 L 163.0500030517578 -204.94999694824213 L 163.5590057373047 -205.41099548339838 L 163.83999633789062 -205.6192016601562 L 164.11099243164062 -205.8200073242187 L 164.6999969482422 -206.17300415039057 L 165.3209991455078 -206.46699523925776 L 165.96800231933594 -206.69900512695307 L 165.9980010986328 -206.70652770996088 L 166.63400268554688 -206.86599731445307 L 167.31399536132812 -206.9660034179687 L 168 -206.99999999999994 L 168.68600463867188 -206.9660034179687 L 169 -206.91983032226557 L 169 -206.957778930664 L 169 -206.99999999999994 L 169.19256591796875 -206.99999999999994 L 169.5531768798828 -206.99999999999994 L 169.92010498046875 -206.99999999999994 L 170.2964324951172 -206.99999999999994 L 172.03199768066406 -206.99999999999994 L 172.4213104248047 -206.99999999999994 L 172.91758728027344 -206.99999999999994 L 173.45327758789062 -206.99999999999994 L 174.0374755859375 -206.99999999999994 L 174.65306091308594 -206.99999999999994 L 175 -206.99999999999994 L 221 -206.99999999999994 L 228 -206.99999999999994 L 228.45480346679688 -206.99999999999994 L 228.83160400390625 -206.99999999999994 L 229 -206.99999999999994 L 229 -206.957778930664 L 229 -206.91983032226557 L 229.36599731445312 -206.86599731445307 L 229.37600708007812 -206.86349487304682 L 230.03199768066406 -206.69900512695307 L 230.6790008544922 -206.46699523925776 L 231.3000030517578 -206.17300415039057 L 231.88900756835938 -205.8200073242187 L 232.4409942626953 -205.41099548339838 L 232.9499969482422 -204.94999694824213 L 233.0858612060547 -204.80000305175776 L 233.41099548339844 -204.44099426269526 L 233.82000732421875 -203.88900756835932 L 234.17300415039062 -203.30000305175776 L 234.4669952392578 -202.67900085449213 L 234.69900512695312 -202.031997680664 L 234.86599731445312 -201.36599731445307 L 234.96600341796875 -200.68600463867182 L 235 -199.99999999999994 L 235 -199.54519653320307 L 235 -199.1683959960937 L 235 -198.8074340820312 L 235 -198.44682312011713 L 235 -198.0798950195312 L 235 -196.60800170898432 L 235 -196.48507690429682 L 235 -196.0444946289062 L 235 -195.57868957519526 L 235 -195.0824127197265 L 235 -194.53927612304682 L 235 -192.99999999999994 L 235 -146.99999999999997 L 235 -139.99999999999997 L 234.96600341796875 -139.3139953613281 L 234.95864868164062 -139.26400756835935 L 234.86599731445312 -138.63400268554685 L 234.70652770996094 -137.99800109863278 L 234.69900512695312 -137.9680023193359 L 234.4669952392578 -137.32099914550778 L 234.17300415039062 -136.69999694824216 L 233.82000732421875 -136.1109924316406 L 233.41099548339844 -135.55900573730466 L 232.9499969482422 -135.05000305175778 L 232.4409942626953 -134.58900451660153 L 231.88900756835938 -134.17999267578122 L 231.3000030517578 -133.82699584960935 L 230.6790008544922 -133.53300476074216 L 230.03199768066406 -133.30099487304685 L 229.37600708007812 -133.13749694824216 L 229.36599731445312 -133.1349945068359 L 229 -133.08064270019528 L 229 -133.04956054687497 L 229 -132.99999999999997 L 228 -132.99999999999997 L 227.54290771484375 -132.99999999999997 L 227.17562866210938 -132.99999999999997 L 226.80743408203125 -132.99999999999997 L 226.4468231201172 -132.99999999999997 L 225.27999877929688 -132.99999999999997 L 224.90667724609375 -132.99999999999997 L 224.48507690429688 -132.99999999999997 L 224.04449462890625 -132.99999999999997 L 223.5786895751953 -132.99999999999997 L 223.08241271972656 -132.99999999999997 L 222.53927612304688 -132.99999999999997 L 221.1840057373047 -132.99999999999997 L 221 -132.99999999999997 L 175 -132.99999999999997 L 172.03199768066406 -132.99999999999997 L 169 -132.99999999999997 M 167.38099670410156 -198.09599304199213 L 168 -197.99800109863276 L 168.61900329589844 -198.09599304199213 L 169.177001953125 -198.38000488281244 L 169.6199951171875 -198.82299804687494 L 169.90499877929688 -199.3809967041015 L 170.0030059814453 -199.99999999999994 L 169.90499877929688 -200.61900329589838 L 169.86158752441406 -200.7039947509765 L 169.6199951171875 -201.17700195312494 L 169.177001953125 -201.61999511718744 L 168.61900329589844 -201.90499877929682 L 168 -202.00300598144526 L 167.38099670410156 -201.90499877929682 L 166.822998046875 -201.61999511718744 L 166.3800048828125 -201.17700195312494 L 166.13926696777344 -200.7039947509765 L 166.0959930419922 -200.61900329589838 L 165.9980010986328 -199.99999999999994 L 166.0959930419922 -199.3809967041015 L 166.3800048828125 -198.82299804687494 L 166.822998046875 -198.38000488281244 L 167.38099670410156 -198.09599304199213 M 166.0953826904297 -139.26400756835935 L 166.322998046875 -138.82299804687497 L 166.7729949951172 -138.38000488281247 L 167.33999633789062 -138.09599304199216 L 167.93600463867188 -138.00314331054685 L 167.968994140625 -137.99800109863278 L 168.5970001220703 -138.09599304199216 L 169.16400146484375 -138.38000488281247 L 169.61399841308594 -138.82299804687497 L 169.8424072265625 -139.26400756835935 L 169.9029998779297 -139.38099670410153 L 170.0030059814453 -139.99999999999997 L 169.9029998779297 -140.6190032958984 L 169.61399841308594 -141.17700195312497 L 169.16400146484375 -141.61999511718747 L 168.5970001220703 -141.90499877929685 L 167.968994140625 -142.00300598144528 L 167.93600463867188 -141.99786376953122 L 167.33999633789062 -141.90499877929685 L 166.7729949951172 -141.61999511718747 L 166.322998046875 -141.17700195312497 L 166.03500366210938 -140.6190032958984 L 165.93499755859375 -139.99999999999997 L 166.03500366210938 -139.38099670410153 L 166.0953826904297 -139.26400756835935 M 229.90499877929688 -200.61900329589838 L 229.86158752441406 -200.7039947509765 L 229.6199951171875 -201.17700195312494 L 229.37600708007812 -201.42100524902338 L 229.177001953125 -201.61999511718744 L 228.61900329589844 -201.90499877929682 L 228 -202.00300598144526 L 227.38099670410156 -201.90499877929682 L 226.822998046875 -201.61999511718744 L 226.3800048828125 -201.17700195312494 L 226.13926696777344 -200.7039947509765 L 226.0959930419922 -200.61900329589838 L 225.9980010986328 -199.99999999999994 L 226.0959930419922 -199.3809967041015 L 226.3800048828125 -198.82299804687494 L 226.822998046875 -198.38000488281244 L 227.38099670410156 -198.09599304199213 L 228 -197.99800109863276 L 228.61900329589844 -198.09599304199213 L 229.177001953125 -198.38000488281244 L 229.37600708007812 -198.5789947509765 L 229.6199951171875 -198.82299804687494 L 229.90499877929688 -199.3809967041015 L 230.0030059814453 -199.99999999999994 L 229.90499877929688 -200.61900329589838 M 229.677001953125 -141.17700195312497 L 229.37600708007812 -141.47331237792966 L 229.2270050048828 -141.61999511718747 L 228.66000366210938 -141.90499877929685 L 228.031005859375 -142.00300598144528 L 227.4029998779297 -141.90499877929685 L 226.83599853515625 -141.61999511718747 L 226.38600158691406 -141.17700195312497 L 226.0970001220703 -140.6190032958984 L 225.9980010986328 -139.99999999999997 L 226.0970001220703 -139.38099670410153 L 226.1575927734375 -139.26400756835935 L 226.38600158691406 -138.82299804687497 L 226.83599853515625 -138.38000488281247 L 227.4029998779297 -138.09599304199216 L 228.031005859375 -137.99800109863278 L 228.66000366210938 -138.09599304199216 L 229.2270050048828 -138.38000488281247 L 229.37600708007812 -138.52668762207028 L 229.677001953125 -138.82299804687497 L 229.9046173095703 -139.26400756835935 L 229.96499633789062 -139.38099670410153 L 230.06500244140625 -139.99999999999997 L 229.96499633789062 -140.6190032958984 L 229.677001953125 -141.17700195312497 z" fill="none" stroke="rgb(255,0,0)" stroke-width="0.001mm" />
</svg>