<?xml version="1.0" standalone="no"?>
<!DOCTYPE svg PUBLIC "-//W3C//DTD SVG 1.1//EN"
  "http://www.w3.org/Graphics/SVG/1.1/DTD/svg11.dtd">
<svg width="76mm" height="75.99999999999997mm" viewBox="254 -119.99999999999997 76 75.99999999999997" xmlns="http://www.w3.org/2000/svg" version="1.1">
	<title>svgOutput</title>
	<desc>made with tinkercad</desc>
<path d="M 275.5010070800781 -94.46399688720702 L 275.5010070800781 -94.63600158691405 L 275.5010070800781 -95.00099945068358 L 275.5010070800781 -98.00199890136716 L 275.49200439453125 -98.19799804687497 L 275.4630126953125 -98.3919982910156 L 275.4150085449219 -98.58300018310544 L 275.3489990234375 -98.7669982910156 L 275.2650146484375 -98.94499969482419 L 275.16400146484375 -99.11299896240232 L 275.0469970703125 -99.2710037231445 L 274.9150085449219 -99.41600036621091 L 274.7699890136719 -99.54799652099607 L 274.61199951171875 -99.66500091552732 L 274.4429931640625 -99.765998840332 L 274.4320068359375 -99.77121734619138 L 274.2659912109375 -99.84999847412107 L 274.08099365234375 -99.91600036621091 L 273.8900146484375 -99.963996887207 L 273.6960144042969 -99.99299621582028 L 273.5 -100.00299835205075 L 273.3039855957031 -99.99299621582028 L 273.1099853515625 -99.963996887207 L 272.91900634765625 -99.91600036621091 L 272.7340087890625 -99.84999847412107 L 272.5570068359375 -99.765998840332 L 272.38800048828125 -99.66500091552732 L 272.3840026855469 -99.66204071044919 L 272.2300109863281 -99.54799652099607 L 272.0849914550781 -99.41600036621091 L 271.9530029296875 -99.2710037231445 L 271.83599853515625 -99.11299896240232 L 271.7349853515625 -98.94499969482419 L 271.6510009765625 -98.7669982910156 L 271.5849914550781 -98.58300018310544 L 271.5369873046875 -98.3919982910156 L 271.50799560546875 -98.19799804687497 L 271.4989929199219 -98.00199890136716 L 271.4989929199219 -95.00099945068358 L 271.4989929199219 -94.8253707885742 L 271.4989929199219 -94.58927917480467 L 271.4989929199219 -94.46399688720702 L 270.927001953125 -94.06400299072264 L 270.4339904785156 -93.5709991455078 L 270.33599853515625 -93.4311065673828 L 270.03399658203125 -92.99999999999999 L 269.739013671875 -92.3679962158203 L 269.5580139160156 -91.69400024414061 L 269.49798583984375 -90.99900054931639 L 269.5580139160156 -90.30400085449217 L 269.739013671875 -89.62999725341795 L 270.03399658203125 -88.9980010986328 L 270.33599853515625 -88.56689453124999 L 270.4339904785156 -88.42700195312499 L 270.927001953125 -87.93399810791014 L 271.4989929199219 -87.53399658203124 L 272.1310119628906 -87.23899841308592 L 272.80499267578125 -87.05799865722655 L 273.5 -86.9980010986328 L 274.19500732421875 -87.05799865722655 L 274.8689880371094 -87.23899841308592 L 275.5010070800781 -87.53399658203124 L 276.072998046875 -87.93399810791014 L 276.5660095214844 -88.42700195312499 L 276.96600341796875 -88.9980010986328 L 277.260986328125 -89.62999725341795 L 277.39044189453125 -90.11199951171874 L 277.4419860839844 -90.30400085449217 L 277.50299072265625 -90.99900054931639 L 277.4419860839844 -91.69400024414061 L 277.260986328125 -92.3679962158203 L 276.96600341796875 -92.99999999999999 L 276.5660095214844 -93.5709991455078 L 276.072998046875 -94.06400299072264 L 275.5010070800781 -94.46399688720702 M 313.5010070800781 -94.46399688720702 L 313.5010070800781 -94.63600158691405 L 313.5010070800781 -95.00099945068358 L 313.5010070800781 -98.00199890136716 L 313.49200439453125 -98.19799804687497 L 313.4630126953125 -98.3919982910156 L 313.4150085449219 -98.58300018310544 L 313.3489990234375 -98.7669982910156 L 313.343994140625 -98.7775955200195 L 313.2650146484375 -98.94499969482419 L 313.16400146484375 -99.11299896240232 L 313.0469970703125 -99.2710037231445 L 312.9150085449219 -99.41600036621091 L 312.7699890136719 -99.54799652099607 L 312.61199951171875 -99.66500091552732 L 312.4429931640625 -99.765998840332 L 312.2659912109375 -99.84999847412107 L 312.08099365234375 -99.91600036621091 L 311.8900146484375 -99.963996887207 L 311.6960144042969 -99.99299621582028 L 311.5 -100.00299835205075 L 311.3039855957031 -99.99299621582028 L 311.2959899902344 -99.99180603027341 L 311.1099853515625 -99.963996887207 L 310.91900634765625 -99.91600036621091 L 310.7340087890625 -99.84999847412107 L 310.5570068359375 -99.765998840332 L 310.38800048828125 -99.66500091552732 L 310.2300109863281 -99.54799652099607 L 310.0849914550781 -99.41600036621091 L 309.9530029296875 -99.2710037231445 L 309.83599853515625 -99.11299896240232 L 309.7349853515625 -98.94499969482419 L 309.6510009765625 -98.7669982910156 L 309.5849914550781 -98.58300018310544 L 309.5369873046875 -98.3919982910156 L 309.5238342285156 -98.30400085449216 L 309.50799560546875 -98.19799804687497 L 309.4989929199219 -98.00199890136716 L 309.4989929199219 -95.00099945068358 L 309.4989929199219 -94.8253707885742 L 309.4989929199219 -94.58927917480467 L 309.4989929199219 -94.46399688720702 L 308.927001953125 -94.06400299072264 L 308.4339904785156 -93.5709991455078 L 308.03399658203125 -92.99999999999999 L 307.739013671875 -92.3679962158203 L 307.5580139160156 -91.69400024414061 L 307.49798583984375 -90.99900054931639 L 307.5580139160156 -90.30400085449217 L 307.60955810546875 -90.11199951171874 L 307.739013671875 -89.62999725341795 L 308.03399658203125 -88.9980010986328 L 308.4339904785156 -88.42700195312499 L 308.927001953125 -87.93399810791014 L 309.4989929199219 -87.53399658203124 L 310.1310119628906 -87.23899841308592 L 310.80499267578125 -87.05799865722655 L 311.2959899902344 -87.01560974121092 L 311.5 -86.9980010986328 L 312.19500732421875 -87.05799865722655 L 312.8689880371094 -87.23899841308592 L 313.5010070800781 -87.53399658203124 L 314.072998046875 -87.93399810791014 L 314.5660095214844 -88.42700195312499 L 314.96600341796875 -88.9980010986328 L 315 -89.07083892822264 L 315.260986328125 -89.62999725341795 L 315.39044189453125 -90.11199951171874 L 315.4419860839844 -90.30400085449217 L 315.50299072265625 -90.99900054931639 L 315.4419860839844 -91.69400024414061 L 315.260986328125 -92.3679962158203 L 315 -92.92716217041014 L 314.96600341796875 -92.99999999999999 L 314.5660095214844 -93.5709991455078 L 314.072998046875 -94.06400299072264 L 313.5010070800781 -94.46399688720702 M 255.03399658203125 -112.68599700927732 L 255.13499450683594 -113.3659973144531 L 255.30099487304688 -114.03199768066403 L 255.5330047607422 -114.67900085449216 L 255.53726196289062 -114.68800354003903 L 255.82699584960938 -115.30000305175778 L 256.17999267578125 -115.88899993896482 L 256.5889892578125 -116.44100189208982 L 257.04998779296875 -116.94999694824216 L 257.5589904785156 -117.41100311279294 L 258.1109924316406 -117.81999969482419 L 258.70001220703125 -118.17299652099607 L 259.3210144042969 -118.46700286865232 L 259.9679870605469 -118.69899749755857 L 260.6340026855469 -118.8649978637695 L 261.3139953613281 -118.96600341796872 L 262 -118.99999999999997 L 262.1440124511719 -118.99286651611325 L 262.6860046386719 -118.96600341796872 L 263 -118.91936492919919 L 263 -118.95622253417966 L 263 -118.99999999999997 L 263.19256591796875 -118.99999999999997 L 263.55316162109375 -118.99999999999997 L 263.92010498046875 -118.99999999999997 L 264.29644775390625 -118.99999999999997 L 264.6865539550781 -118.99999999999997 L 265.09332275390625 -118.99999999999997 L 265.5149230957031 -118.99999999999997 L 265.95550537109375 -118.99999999999997 L 266.4212951660156 -118.99999999999997 L 269 -118.99999999999997 L 315 -118.99999999999997 L 319.4880065917969 -118.99999999999997 L 322 -118.99999999999997 L 322.45709228515625 -118.99999999999997 L 322.8243713378906 -118.99999999999997 L 323 -118.99999999999997 L 323 -118.95622253417966 L 323 -118.91936492919919 L 323.3659973144531 -118.8649978637695 L 324.0320129394531 -118.69899749755857 L 324.6789855957031 -118.46700286865232 L 325.29998779296875 -118.17299652099607 L 325.8890075683594 -117.81999969482419 L 326.4410095214844 -117.41100311279294 L 326.95001220703125 -116.94999694824216 L 327.4110107421875 -116.44100189208982 L 327.67999267578125 -116.07794952392575 L 327.82000732421875 -115.88899993896482 L 328.1730041503906 -115.30000305175778 L 328.4627380371094 -114.68800354003903 L 328.4670104980469 -114.67900085449216 L 328.6990051269531 -114.03199768066403 L 328.8659973144531 -113.3659973144531 L 328.96600341796875 -112.68599700927732 L 329 -111.99999999999997 L 329 -111.5451965332031 L 329 -111.16839599609372 L 329 -110.80742645263669 L 329 -110.44682312011716 L 329 -110.07989501953122 L 329 -109.70356750488278 L 329 -104.99999999999997 L 329 -86.9980010986328 L 329 -58.999999999999986 L 329 -51.999999999999986 L 328.96600341796875 -51.313999176025376 L 328.8659973144531 -50.633998870849595 L 328.6990051269531 -49.96799850463866 L 328.4670104980469 -49.3209991455078 L 328.3869934082031 -49.15200042724608 L 328.1730041503906 -48.70000076293944 L 327.82000732421875 -48.11100006103514 L 327.67999267578125 -47.92205047607421 L 327.4110107421875 -47.55899810791015 L 326.95001220703125 -47.04999923706054 L 326.4410095214844 -46.58900070190429 L 325.8890075683594 -46.180000305175774 L 325.29998779296875 -45.82699966430663 L 324.6789855957031 -45.533000946044915 L 324.0320129394531 -45.30099868774413 L 323.3659973144531 -45.134998321533196 L 323 -45.08063888549804 L 323 -45.04956436157226 L 323 -44.99999999999999 L 322 -44.99999999999999 L 321.54290771484375 -44.99999999999999 L 321.1756286621094 -44.99999999999999 L 320.80743408203125 -44.99999999999999 L 319.4880065917969 -44.99999999999999 L 319.3134460449219 -44.99999999999999 L 318.90667724609375 -44.99999999999999 L 318.4850769042969 -44.99999999999999 L 318.04449462890625 -44.99999999999999 L 317.5787048339844 -44.99999999999999 L 315 -44.99999999999999 L 269 -44.99999999999999 L 263 -44.99999999999999 L 263 -45.04956436157226 L 263 -45.08063888549804 L 262.6860046386719 -45.03400039672851 L 262.1440124511719 -45.00713729858398 L 262 -44.99999999999999 L 261.3139953613281 -45.03400039672851 L 260.6340026855469 -45.134998321533196 L 259.9679870605469 -45.30099868774413 L 259.3210144042969 -45.533000946044915 L 258.70001220703125 -45.82699966430663 L 258.1109924316406 -46.180000305175774 L 257.5589904785156 -46.58900070190429 L 257.04998779296875 -47.04999923706054 L 256.5889892578125 -47.55899810791015 L 256.17999267578125 -48.11100006103514 L 255.82699584960938 -48.70000076293944 L 255.61300659179688 -49.15200042724608 L 255.5330047607422 -49.3209991455078 L 255.30099487304688 -49.96799850463866 L 255.13499450683594 -50.633998870849595 L 255.03399658203125 -51.313999176025376 L 255 -51.999999999999986 L 255 -52.45708847045897 L 255 -52.824375152587876 L 255 -53.19257354736327 L 255 -53.55317306518553 L 255 -53.920104980468736 L 255 -54.29643249511717 L 255 -54.686550140380845 L 255 -55.09331893920897 L 255 -57.34400177001952 L 255 -57.46073150634764 L 255 -58.02818679809569 L 255 -58.65306091308592 L 255 -58.999999999999986 L 255 -104.99999999999997 L 255 -106.4960021972656 L 255 -111.99999999999997 L 255.03399658203125 -112.68599700927732 M 263.177001953125 -110.37999725341794 L 263.3890075683594 -110.59200286865232 L 263.6199951171875 -110.82299804687497 L 263.90399169921875 -111.38099670410153 L 264.00299072265625 -111.99999999999997 L 263.90399169921875 -112.61900329589841 L 263.6199951171875 -113.17700195312497 L 263.177001953125 -113.620002746582 L 262.6189880371094 -113.90399932861325 L 262.1440124511719 -113.97997283935544 L 262 -114.00299835205075 L 261.3810119628906 -113.90399932861325 L 260.822998046875 -113.620002746582 L 260.3800048828125 -113.17700195312497 L 260.09600830078125 -112.61900329589841 L 259.99798583984375 -111.99999999999997 L 260.09600830078125 -111.38099670410153 L 260.3800048828125 -110.82299804687497 L 260.6109924316406 -110.59200286865232 L 260.822998046875 -110.37999725341794 L 261.3810119628906 -110.09600067138669 L 262 -109.99800109863278 L 262.1440124511719 -110.02079772949216 L 262.6189880371094 -110.09600067138669 L 263.177001953125 -110.37999725341794 M 262.59698486328125 -53.90399932861327 L 262.1440124511719 -53.97541427612303 L 261.968994140625 -54.00299835205077 L 261.3399963378906 -53.90399932861327 L 260.77301025390625 -53.61999893188475 L 260.322998046875 -53.17699813842772 L 260.0350036621094 -52.61899948120116 L 259.93499755859375 -51.999999999999986 L 260.0350036621094 -51.381000518798814 L 260.322998046875 -50.82300186157225 L 260.77301025390625 -50.38000106811522 L 261.3399963378906 -50.096000671386705 L 261.968994140625 -49.9980010986328 L 262.1440124511719 -50.02531051635741 L 262.59698486328125 -50.096000671386705 L 263.16400146484375 -50.38000106811522 L 263.614013671875 -50.82300186157225 L 263.90301513671875 -51.381000518798814 L 264.00299072265625 -51.999999999999986 L 263.90301513671875 -52.61899948120116 L 263.614013671875 -53.17699813842772 L 263.16400146484375 -53.61999893188475 L 262.59698486328125 -53.90399932861327 M 321.3810119628906 -110.09600067138669 L 322 -109.99800109863278 L 322.6189880371094 -110.09600067138669 L 323.177001953125 -110.37999725341794 L 323.3890075683594 -110.59200286865232 L 323.5840148925781 -110.78700256347653 L 323.6199951171875 -110.82299804687497 L 323.90399169921875 -111.38099670410153 L 324.00299072265625 -111.99999999999997 L 323.90399169921875 -112.61900329589841 L 323.6199951171875 -113.17700195312497 L 323.5840148925781 -113.21299743652341 L 323.177001953125 -113.620002746582 L 322.6189880371094 -113.90399932861325 L 322 -114.00299835205075 L 321.3810119628906 -113.90399932861325 L 320.822998046875 -113.620002746582 L 320.3800048828125 -113.17700195312497 L 320.09600830078125 -112.61900329589841 L 319.99798583984375 -111.99999999999997 L 320.09600830078125 -111.38099670410153 L 320.3800048828125 -110.82299804687497 L 320.6109924316406 -110.59200286865232 L 320.822998046875 -110.37999725341794 L 321.3810119628906 -110.09600067138669 M 321.40301513671875 -50.096000671386705 L 322.031005859375 -49.9980010986328 L 322.6600036621094 -50.096000671386705 L 323.22698974609375 -50.38000106811522 L 323.5840148925781 -50.731445312499986 L 323.677001953125 -50.82300186157225 L 323.9649963378906 -51.381000518798814 L 324.06500244140625 -51.999999999999986 L 323.9649963378906 -52.61899948120116 L 323.677001953125 -53.17699813842772 L 323.5840148925781 -53.268554687499986 L 323.22698974609375 -53.61999893188475 L 322.6600036621094 -53.90399932861327 L 322.031005859375 -54.00299835205077 L 321.40301513671875 -53.90399932861327 L 320.83599853515625 -53.61999893188475 L 320.4581298828125 -53.2480010986328 L 320.385986328125 -53.17699813842772 L 320.09698486328125 -52.61899948120116 L 319.99798583984375 -51.999999999999986 L 320.09698486328125 -51.381000518798814 L 320.385986328125 -50.82300186157225 L 320.83599853515625 -50.38000106811522 L 321.40301513671875 -50.096000671386705 z" fill="none" stroke="rgb(255,0,0)" stroke-width="0.001mm" />
</svg>