<?xml version="1.0" standalone="no"?>
<!DOCTYPE svg PUBLIC "-//W3C//DTD SVG 1.1//EN"
  "http://www.w3.org/Graphics/SVG/1.1/DTD/svg11.dtd">
<svg width="76mm" height="75.99999999999997mm" viewBox="0 41.99999999999999 76 75.99999999999997" xmlns="http://www.w3.org/2000/svg" version="1.1">
	<title>svgOutput</title>
	<desc>made with tinkercad</desc>
<path d="M 1.034000039100647 49.313999176025376 L 1.0580617189407349 49.15200042724608 L 1.1349999904632568 48.633998870849595 L 1.3009999990463257 47.967998504638665 L 1.5329999923706055 47.320999145507805 L 1.8270000219345093 46.700000762939446 L 2.180000066757202 46.11100006103515 L 2.5889999866485596 45.55899810791015 L 3.049999952316284 45.04999923706054 L 3.559000015258789 44.58900070190429 L 4.111000061035156 44.180000305175774 L 4.699999809265137 43.82699966430663 L 5.321000099182129 43.533000946044915 L 5.9679999351501465 43.30099868774413 L 5.998000144958496 43.29352188110351 L 6.633999824523926 43.134998321533196 L 7.314000129699707 43.03400039672851 L 8 42.99999999999999 L 8.192000389099121 43.00951766967773 L 8.685999870300293 43.03400039672851 L 9 43.08063888549804 L 9 43.04377365112304 L 9 42.99999999999999 L 9.192573547363281 42.99999999999999 L 9.553173065185547 42.99999999999999 L 9.92010498046875 42.99999999999999 L 10.296432495117188 42.99999999999999 L 10.686551094055176 42.99999999999999 L 11.0933198928833 42.99999999999999 L 11.51492977142334 42.99999999999999 L 11.955513000488281 42.99999999999999 L 12.421309471130371 42.99999999999999 L 12.917584419250488 42.99999999999999 L 13.460729598999023 42.99999999999999 L 14.02818489074707 42.99999999999999 L 15 42.99999999999999 L 61 42.99999999999999 L 65.53600311279297 42.99999999999999 L 68 42.99999999999999 L 68.45709228515625 42.99999999999999 L 68.82437133789062 42.99999999999999 L 69 42.99999999999999 L 69 43.04377365112304 L 69 43.08063888549804 L 69.36599731445312 43.134998321533196 L 70.00299835205078 43.29377365112304 L 70.03199768066406 43.30099868774413 L 70.67900085449219 43.533000946044915 L 71.30000305175781 43.82699966430663 L 71.88899993896484 44.180000305175774 L 72.44100189208984 44.58900070190429 L 72.94999694824219 45.04999923706054 L 73.41100311279297 45.55899810791015 L 73.72799682617188 45.98683547973632 L 73.81999969482422 46.11100006103515 L 74.1729965209961 46.700000762939446 L 74.46700286865234 47.320999145507805 L 74.6989974975586 47.967998504638665 L 74.86499786376953 48.633998870849595 L 74.94194030761719 49.15200042724608 L 74.96600341796875 49.313999176025376 L 75 49.999999999999986 L 75 50.45708847045897 L 75 50.824375152587876 L 75 51.19257354736327 L 75 51.55317306518553 L 75 51.920104980468736 L 75 52.29643249511717 L 75 56.999999999999986 L 75 102.99999999999997 L 75 106.4960021972656 L 75 109.99999999999997 L 74.96600341796875 110.68599700927732 L 74.86499786376953 111.3659973144531 L 74.70623016357422 112.00299835205075 L 74.6989974975586 112.03199768066403 L 74.46700286865234 112.67900085449216 L 74.1729965209961 113.30000305175778 L 73.81999969482422 113.88899993896482 L 73.41100311279297 114.44100189208982 L 73.18729400634766 114.68800354003903 L 72.94999694824219 114.94999694824216 L 72.44100189208984 115.41100311279294 L 71.88899993896484 115.81999969482419 L 71.30000305175781 116.17299652099607 L 70.67900085449219 116.46700286865232 L 70.03199768066406 116.69899749755857 L 69.36599731445312 116.8649978637695 L 69 116.91936492919919 L 69 116.95043945312497 L 69 116.99999999999997 L 68 116.99999999999997 L 67.54290771484375 116.99999999999997 L 67.17562866210938 116.99999999999997 L 66.80742645263672 116.99999999999997 L 65.53600311279297 116.99999999999997 L 65.31344604492188 116.99999999999997 L 64.90667724609375 116.99999999999997 L 61 116.99999999999997 L 15 116.99999999999997 L 9 116.99999999999997 L 9 116.95043945312497 L 9 116.91936492919919 L 8.685999870300293 116.96600341796872 L 8.192000389099121 116.9904861450195 L 8 116.99999999999997 L 7.314000129699707 116.96600341796872 L 6.633999824523926 116.8649978637695 L 5.9679999351501465 116.69899749755857 L 5.321000099182129 116.46700286865232 L 4.699999809265137 116.17299652099607 L 4.111000061035156 115.81999969482419 L 3.559000015258789 115.41100311279294 L 3.049999952316284 114.94999694824216 L 2.8127071857452393 114.68800354003903 L 2.5889999866485596 114.44100189208982 L 2.180000066757202 113.88899993896482 L 1.8270000219345093 113.30000305175778 L 1.5329999923706055 112.67900085449216 L 1.3009999990463257 112.03199768066403 L 1.1349999904632568 111.3659973144531 L 1.034000039100647 110.68599700927732 L 1 109.99999999999997 L 1 109.54290771484372 L 1 109.17562866210935 L 1 108.80742645263669 L 1 108.44682312011716 L 1 108.07989501953122 L 1 106.4960021972656 L 1 106.48506927490232 L 1 106.04448699951169 L 1 105.57868957519528 L 1 105.08241271972653 L 1 104.53926849365232 L 1 103.97181701660153 L 1 103.34693908691403 L 1 102.99999999999997 L 1 56.999999999999986 L 1 53.2480010986328 L 1 49.999999999999986 L 1.034000039100647 49.313999176025376 M 8.619000434875488 48.096000671386705 L 8.192000389099121 48.0283966064453 L 8 47.998001098632805 L 7.38100004196167 48.096000671386705 L 6.822999954223633 48.38000106811522 L 6.380000114440918 48.82300186157225 L 6.212552070617676 49.15200042724608 L 6.0960001945495605 49.381000518798814 L 5.998000144958496 49.999999999999986 L 6.0960001945495605 50.61899948120116 L 6.380000114440918 51.17699813842772 L 6.822999954223633 51.61999893188475 L 7.38100004196167 51.90399932861327 L 8 52.00299835205077 L 8.192000389099121 51.97229385375975 L 8.619000434875488 51.90399932861327 L 9.177000045776367 51.61999893188475 L 9.619999885559082 51.17699813842772 L 9.904000282287598 50.61899948120116 L 10.003000259399414 49.999999999999986 L 9.904000282287598 49.381000518798814 L 9.787447929382324 49.15200042724608 L 9.619999885559082 48.82300186157225 L 9.177000045776367 48.38000106811522 L 8.619000434875488 48.096000671386705 M 8.597000122070312 108.09600067138669 L 8.192000389099121 108.03279876708982 L 7.968999862670898 107.99800109863278 L 7.340000152587891 108.09600067138669 L 6.7729997634887695 108.37999725341794 L 6.322999954223633 108.82299804687497 L 6.034999847412109 109.38099670410153 L 5.934999942779541 109.99999999999997 L 6.034999847412109 110.61900329589841 L 6.322999954223633 111.17700195312497 L 6.7729997634887695 111.620002746582 L 7.340000152587891 111.90399932861325 L 7.968999862670898 112.00299835205075 L 8.192000389099121 111.96784210205075 L 8.597000122070312 111.90399932861325 L 9.163999557495117 111.620002746582 L 9.61400032043457 111.17700195312497 L 9.902999877929688 110.61900329589841 L 10.003000259399414 109.99999999999997 L 9.902999877929688 109.38099670410153 L 9.61400032043457 108.82299804687497 L 9.163999557495117 108.37999725341794 L 8.597000122070312 108.09600067138669 M 66.37999725341797 48.82300186157225 L 66.21255493164062 49.15200042724608 L 66.09600067138672 49.381000518798814 L 65.99800109863281 49.999999999999986 L 66.09600067138672 50.61899948120116 L 66.37999725341797 51.17699813842772 L 66.822998046875 51.61999893188475 L 67.38099670410156 51.90399932861327 L 68 52.00299835205077 L 68.61900329589844 51.90399932861327 L 69.177001953125 51.61999893188475 L 69.62000274658203 51.17699813842772 L 69.90399932861328 50.61899948120116 L 70.00299835205078 49.999999999999986 L 69.90399932861328 49.381000518798814 L 69.78744506835938 49.15200042724608 L 69.62000274658203 48.82300186157225 L 69.177001953125 48.38000106811522 L 68.61900329589844 48.096000671386705 L 68 47.998001098632805 L 67.38099670410156 48.096000671386705 L 66.822998046875 48.38000106811522 L 66.37999725341797 48.82300186157225 M 67.40299987792969 111.90399932861325 L 68.03099822998047 112.00299835205075 L 68.66000366210938 111.90399932861325 L 69.22699737548828 111.620002746582 L 69.63200378417969 111.22129821777341 L 69.677001953125 111.17700195312497 L 69.96499633789062 110.61900329589841 L 70.06500244140625 109.99999999999997 L 69.96499633789062 109.38099670410153 L 69.677001953125 108.82299804687497 L 69.63200378417969 108.77870178222653 L 69.22699737548828 108.37999725341794 L 68.66000366210938 108.09600067138669 L 68.03099822998047 107.99800109863278 L 67.40299987792969 108.09600067138669 L 66.83599853515625 108.37999725341794 L 66.38600158691406 108.82299804687497 L 66.09700012207031 109.38099670410153 L 65.99800109863281 109.99999999999997 L 66.09268188476562 110.59200286865232 L 66.09700012207031 110.61900329589841 L 66.38600158691406 111.17700195312497 L 66.83599853515625 111.620002746582 L 67.40299987792969 111.90399932861325 M 62.5890007019043 114.44100189208982 L 62.65885925292969 114.68800354003903 L 62.772010803222656 114.68800354003903 L 62.5890007019043 114.44100189208982 M 65.53600311279297 116.87583923339841 L 65.53600311279297 116.67403411865232 L 65.32099914550781 116.46700286865232 L 64.11100006103516 115.81999969482419 L 65.53600311279297 116.87583923339841 z" fill="none" stroke="rgb(255,0,0)" stroke-width="0.001mm" />
</svg>