<?xml version="1.0" standalone="no"?>
<!DOCTYPE svg PUBLIC "-//W3C//DTD SVG 1.1//EN"
  "http://www.w3.org/Graphics/SVG/1.1/DTD/svg11.dtd">
<svg width="76mm" height="75.99999999999999mm" viewBox="254 -28.999999999999993 76 75.99999999999999" xmlns="http://www.w3.org/2000/svg" version="1.1">
	<title>svgOutput</title>
	<desc>made with tinkercad</desc>
<path d="M 328.8659973144531 40.36600112915038 L 328.6990051269531 41.03200149536132 L 328.4670104980469 41.67900085449218 L 328.1730041503906 42.29999923706054 L 327.82000732421875 42.88899993896484 L 327.67999267578125 43.077949523925774 L 327.4110107421875 43.44100189208984 L 326.95001220703125 43.950000762939446 L 326.4410095214844 44.410999298095696 L 325.8890075683594 44.81999969482421 L 325.29998779296875 45.17300033569335 L 324.6789855957031 45.46699905395507 L 324.0320129394531 45.69900131225585 L 323.3659973144531 45.86500167846679 L 323 45.919361114501946 L 323 45.95043563842773 L 323 45.99999999999999 L 263 45.99999999999999 L 263 45.95043563842773 L 263 45.919361114501946 L 262.6860046386719 45.96599960327148 L 262.1440124511719 45.99286270141601 L 262 45.99999999999999 L 261.3139953613281 45.96599960327148 L 260.6340026855469 45.86500167846679 L 259.9679870605469 45.69900131225585 L 259.93499755859375 45.68716812133788 L 259.3210144042969 45.46699905395507 L 258.70001220703125 45.17300033569335 L 258.1109924316406 44.81999969482421 L 257.5589904785156 44.410999298095696 L 257.04998779296875 43.950000762939446 L 256.5889892578125 43.44100189208984 L 256.17999267578125 42.88899993896484 L 255.82699584960938 42.29999923706054 L 255.5330047607422 41.67900085449218 L 255.30099487304688 41.03200149536132 L 255.28305053710938 40.95999908447265 L 255.13499450683594 40.36600112915038 L 255.03399658203125 39.6860008239746 L 255 38.99999999999999 L 255 -20.999999999999996 L 255.03399658203125 -21.686000823974606 L 255.13499450683594 -22.365999221801754 L 255.30099487304688 -23.03199958801269 L 255.5330047607422 -23.679000854492184 L 255.82699584960938 -24.29999923706054 L 255.99241638183594 -24.57600021362304 L 256.17999267578125 -24.888999938964837 L 256.5889892578125 -25.440999984741204 L 257.04998779296875 -25.950000762939446 L 257.5589904785156 -26.410999298095696 L 258.1109924316406 -26.81999969482421 L 258.70001220703125 -27.173000335693352 L 259.3210144042969 -27.46699905395507 L 259.9679870605469 -27.69899940490722 L 260.6340026855469 -27.864999771118157 L 261.3139953613281 -27.965999603271477 L 262 -27.999999999999993 L 262.1440124511719 -27.99286270141601 L 262.6860046386719 -27.965999603271477 L 263 -27.919361114501946 L 263 -27.956224441528313 L 263 -27.999999999999993 L 264.00299072265625 -27.999999999999993 L 319.99798583984375 -27.999999999999993 L 323 -27.999999999999993 L 323 -27.956224441528313 L 323 -27.919361114501946 L 323.3659973144531 -27.864999771118157 L 324.00299072265625 -27.70622825622558 L 324.0320129394531 -27.69899940490722 L 324.6789855957031 -27.46699905395507 L 325.29998779296875 -27.173000335693352 L 325.8890075683594 -26.81999969482421 L 326.4410095214844 -26.410999298095696 L 326.95001220703125 -25.950000762939446 L 327.4110107421875 -25.440999984741204 L 327.67999267578125 -25.077949523925774 L 327.82000732421875 -24.888999938964837 L 328.1730041503906 -24.29999923706054 L 328.4670104980469 -23.679000854492184 L 328.6990051269531 -23.03199958801269 L 328.8659973144531 -22.365999221801754 L 328.96600341796875 -21.686000823974606 L 329 -20.999999999999996 L 329 -18.997999191284176 L 329 38.99999999999999 L 328.96600341796875 39.6860008239746 L 328.8659973144531 40.36600112915038 M 323 40.73369979858398 L 323.22698974609375 40.61999893188476 L 323.5840148925781 40.26855468749999 L 323.677001953125 40.17699813842773 L 323.9649963378906 39.618999481201165 L 324.06500244140625 38.99999999999999 L 323.9649963378906 38.38100051879882 L 323.677001953125 37.82300186157226 L 323.5840148925781 37.73144531249999 L 323.22698974609375 37.38000106811523 L 323 37.26630020141601 L 322.6600036621094 37.09600067138671 L 322.031005859375 36.998001098632805 L 321.40301513671875 37.09600067138671 L 320.83599853515625 37.38000106811523 L 320.385986328125 37.82300186157226 L 320.09698486328125 38.38100051879882 L 320.0120849609375 38.91199874877929 L 319.99798583984375 38.99999999999999 L 320.09698486328125 39.618999481201165 L 320.385986328125 40.17699813842773 L 320.83599853515625 40.61999893188476 L 321.40301513671875 40.903999328613274 L 321.75823974609375 40.95999908447265 L 322.031005859375 41.002998352050774 L 322.30419921875 40.95999908447265 L 322.6600036621094 40.903999328613274 L 323 40.73369979858398 M 323 -22.710086822509762 L 322.6189880371094 -22.903999328613278 L 322 -23.00300025939941 L 321.3810119628906 -22.903999328613278 L 320.822998046875 -22.620000839233395 L 320.3800048828125 -22.177000045776364 L 320.09600830078125 -21.61899948120117 L 319.99798583984375 -20.999999999999996 L 320.080322265625 -20.479999542236325 L 320.09600830078125 -20.381000518798825 L 320.3800048828125 -19.82299995422363 L 320.822998046875 -19.379999160766598 L 321.3810119628906 -19.096000671386715 L 322 -18.997999191284176 L 322.6189880371094 -19.096000671386715 L 323 -19.28991317749023 L 323.177001953125 -19.379999160766598 L 323.6199951171875 -19.82299995422363 L 323.90399169921875 -20.381000518798825 L 323.9198303222656 -20.479999542236325 L 324.00299072265625 -20.999999999999996 L 323.90399169921875 -21.61899948120117 L 323.6199951171875 -22.177000045776364 L 323.177001953125 -22.620000839233395 L 323 -22.710086822509762 M 263 40.70214462280273 L 263.16400146484375 40.61999893188476 L 263.614013671875 40.17699813842773 L 263.90301513671875 39.618999481201165 L 264.00299072265625 38.99999999999999 L 263.90301513671875 38.38100051879882 L 263.614013671875 37.82300186157226 L 263.16400146484375 37.38000106811523 L 263 37.29785537719726 L 262.59698486328125 37.09600067138671 L 262.1440124511719 37.025310516357415 L 261.968994140625 36.998001098632805 L 261.3399963378906 37.09600067138671 L 260.77301025390625 37.38000106811523 L 260.322998046875 37.82300186157226 L 260.0350036621094 38.38100051879882 L 259.99798583984375 38.61003112792968 L 259.93499755859375 38.99999999999999 L 260.0350036621094 39.618999481201165 L 260.322998046875 40.17699813842773 L 260.77301025390625 40.61999893188476 L 261.3399963378906 40.903999328613274 L 261.69580078125 40.95999908447265 L 261.968994140625 41.002998352050774 L 262.1440124511719 40.97541427612304 L 262.24176025390625 40.95999908447265 L 262.59698486328125 40.903999328613274 L 263 40.70214462280273 M 263 -22.710086822509762 L 262.6189880371094 -22.903999328613278 L 262.1440124511719 -22.9799690246582 L 262 -23.00300025939941 L 261.3810119628906 -22.903999328613278 L 260.822998046875 -22.620000839233395 L 260.3800048828125 -22.177000045776364 L 260.09600830078125 -21.61899948120117 L 259.99798583984375 -20.999999999999996 L 260.080322265625 -20.479999542236325 L 260.09600830078125 -20.381000518798825 L 260.3800048828125 -19.82299995422363 L 260.822998046875 -19.379999160766598 L 261.3810119628906 -19.096000671386715 L 262 -18.997999191284176 L 262.6189880371094 -19.096000671386715 L 263 -19.28991317749023 L 263.177001953125 -19.379999160766598 L 263.6199951171875 -19.82299995422363 L 263.90399169921875 -20.381000518798825 L 263.9198303222656 -20.479999542236325 L 264.00299072265625 -20.999999999999996 L 263.90399169921875 -21.61899948120117 L 263.6199951171875 -22.177000045776364 L 263.177001953125 -22.620000839233395 L 263 -22.710086822509762 M 273.8290100097656 13.486000061035153 L 273.9230041503906 11.939000129699705 L 273.97900390625 10.109999656677244 L 273.99798583984375 8.001000404357908 L 273.99798583984375 1.1102230246251565e-16 L 273.99798583984375 -4.000999927520751 L 273.97900390625 -6.1100001335144025 L 273.9230041503906 -7.939000129699705 L 273.8290100097656 -9.486000061035154 L 273.697998046875 -10.751999855041502 L 273.52899169921875 -11.736000061035154 L 273.322998046875 -12.439999580383297 L 273.0790100097656 -12.861000061035153 L 272.7980041503906 -13.00300025939941 L 271.197998046875 -13.00300025939941 L 270.9159851074219 -12.861000061035153 L 270.6730041503906 -12.439999580383297 L 270.46600341796875 -11.736000061035154 L 270.2980041503906 -10.751999855041502 L 270.1659851074219 -9.486000061035154 L 270.072998046875 -7.939000129699705 L 270.0159912109375 -6.1100001335144025 L 269.99798583984375 -4.000999927520751 L 269.99798583984375 1.1102230246251565e-16 L 269.99798583984375 8.001000404357908 L 270.0159912109375 10.109999656677244 L 270.072998046875 11.939000129699705 L 270.1659851074219 13.486000061035153 L 270.2980041503906 14.7519998550415 L 270.46600341796875 15.736000061035153 L 270.6730041503906 16.440000534057614 L 270.9159851074219 16.861000061035153 L 271.197998046875 17.00300025939941 L 272.7980041503906 17.00300025939941 L 273.0790100097656 16.861000061035153 L 273.322998046875 16.440000534057614 L 273.52899169921875 15.736000061035153 L 273.697998046875 14.7519998550415 L 273.8290100097656 13.486000061035153 M 313.8340148925781 13.486000061035153 L 313.9280090332031 11.939000129699705 L 313.9840087890625 10.109999656677244 L 314.00299072265625 8.001000404357908 L 314.00299072265625 1.1102230246251565e-16 L 314.00299072265625 -4.000999927520751 L 313.9840087890625 -6.1100001335144025 L 313.9280090332031 -7.939000129699705 L 313.8340148925781 -9.486000061035154 L 313.7019958496094 -10.751999855041502 L 313.53399658203125 -11.736000061035154 L 313.3269958496094 -12.439999580383297 L 313.0840148925781 -12.861000061035153 L 312.802001953125 -13.00300025939941 L 311.2019958496094 -13.00300025939941 L 310.9209899902344 -12.861000061035153 L 310.677001953125 -12.439999580383297 L 310.47100830078125 -11.736000061035154 L 310.302001953125 -10.751999855041502 L 310.1709899902344 -9.486000061035154 L 310.0769958496094 -7.939000129699705 L 310.02099609375 -6.1100001335144025 L 310.00201416015625 -4.000999927520751 L 310.00201416015625 1.1102230246251565e-16 L 310.00201416015625 8.001000404357908 L 310.02099609375 10.109999656677244 L 310.0769958496094 11.939000129699705 L 310.1709899902344 13.486000061035153 L 310.302001953125 14.7519998550415 L 310.47100830078125 15.736000061035153 L 310.677001953125 16.440000534057614 L 310.9209899902344 16.861000061035153 L 311.2019958496094 17.00300025939941 L 312.802001953125 17.00300025939941 L 313.0840148925781 16.861000061035153 L 313.3269958496094 16.440000534057614 L 313.53399658203125 15.736000061035153 L 313.7019958496094 14.7519998550415 L 313.8340148925781 13.486000061035153 z" fill="none" stroke="rgb(255,0,0)" stroke-width="0.001mm" />
</svg>