<?xml version="1.0" standalone="no"?>
<!DOCTYPE svg PUBLIC "-//W3C//DTD SVG 1.1//EN"
  "http://www.w3.org/Graphics/SVG/1.1/DTD/svg11.dtd">
<svg width="76mm" height="75.99999999999999mm" viewBox="112 -167.99999999999997 76 75.99999999999999" xmlns="http://www.w3.org/2000/svg" version="1.1">
	<title>svgOutput</title>
	<desc>made with tinkercad</desc>
<path d="M 121 -92.99999999999999 L 121 -93.04956054687499 L 121 -93.08063507080077 L 120.68599700927734 -93.03399658203124 L 120 -92.99999999999999 L 119.31400299072266 -93.03399658203124 L 118.63400268554688 -93.13500213623045 L 117.96800231933594 -93.30100250244139 L 117.93499755859375 -93.31283569335936 L 117.32099914550781 -93.53299713134764 L 116.69999694824219 -93.82700347900389 L 116.11100006103516 -94.18000030517577 L 115.55899810791016 -94.58899688720702 L 115.05000305175781 -95.0500030517578 L 114.68800354003906 -95.44969177246092 L 114.58899688720703 -95.55899810791014 L 114.18000030517578 -96.11100006103513 L 113.8270034790039 -96.69999694824216 L 113.53299713134766 -97.32099914550778 L 113.3010025024414 -97.96800231933591 L 113.21725463867188 -98.30400085449216 L 113.13500213623047 -98.63400268554685 L 113.03399658203125 -99.31400299072263 L 113 -99.99999999999997 L 113 -100.45709228515622 L 113 -100.8243713378906 L 113 -101.19257354736325 L 113 -101.55317687988278 L 113 -101.92010498046872 L 113 -102.29643249511716 L 113 -102.6865539550781 L 113 -106.99999999999997 L 113 -152.99999999999997 L 113 -159.99999999999997 L 113.03399658203125 -160.68600463867185 L 113.13500213623047 -161.3659973144531 L 113.3010025024414 -162.03199768066403 L 113.53299713134766 -162.67900085449216 L 113.8270034790039 -163.30000305175778 L 114.150634765625 -163.8399963378906 L 114.18000030517578 -163.88900756835935 L 114.58899688720703 -164.44099426269528 L 114.68800354003906 -164.55030822753903 L 115.05000305175781 -164.94999694824216 L 115.55899810791016 -165.4109954833984 L 116.11100006103516 -165.82000732421872 L 116.69999694824219 -166.1730041503906 L 117.32099914550781 -166.46699523925778 L 117.96800231933594 -166.6990051269531 L 118.63400268554688 -166.8659973144531 L 119.31400299072266 -166.96600341796872 L 120 -166.99999999999997 L 120.68599700927734 -166.96600341796872 L 121 -166.9198303222656 L 121 -166.95777893066403 L 121 -166.99999999999997 L 121.19257354736328 -166.99999999999997 L 121.55317687988281 -166.99999999999997 L 122.87999725341797 -166.99999999999997 L 123.09332275390625 -166.99999999999997 L 123.51493072509766 -166.99999999999997 L 123.95551300048828 -166.99999999999997 L 127 -166.99999999999997 L 173 -166.99999999999997 L 180 -166.99999999999997 L 180.2239990234375 -166.99999999999997 L 180.45480346679688 -166.99999999999997 L 180.83160400390625 -166.99999999999997 L 181 -166.99999999999997 L 181 -166.95777893066403 L 181 -166.9198303222656 L 181.36599731445312 -166.8659973144531 L 182.03199768066406 -166.6990051269531 L 182.6790008544922 -166.46699523925778 L 183.3000030517578 -166.1730041503906 L 183.88900756835938 -165.82000732421872 L 184.4409942626953 -165.4109954833984 L 184.9499969482422 -164.94999694824216 L 185.41099548339844 -164.44099426269528 L 185.82000732421875 -163.88900756835935 L 185.849365234375 -163.8399963378906 L 186.17300415039062 -163.30000305175778 L 186.4669952392578 -162.67900085449216 L 186.69900512695312 -162.03199768066403 L 186.86599731445312 -161.3659973144531 L 186.96600341796875 -160.68600463867185 L 187 -159.99999999999997 L 187 -159.5451965332031 L 187 -159.16839599609372 L 187 -158.80743408203122 L 187 -158.44682312011716 L 187 -158.07989501953122 L 187 -157.70356750488278 L 187 -155.64799499511716 L 187 -152.99999999999997 L 187 -106.99999999999997 L 187 -106.4960021972656 L 187 -99.99999999999997 L 186.96600341796875 -99.31400299072263 L 186.86599731445312 -98.63400268554685 L 186.7832489013672 -98.30400085449216 L 186.70652770996094 -97.99800109863278 L 186.69900512695312 -97.96800231933591 L 186.4669952392578 -97.32099914550778 L 186.17300415039062 -96.69999694824216 L 185.82000732421875 -96.11100006103513 L 185.41099548339844 -95.55899810791014 L 184.9499969482422 -95.0500030517578 L 184.4409942626953 -94.58899688720702 L 183.88900756835938 -94.18000030517577 L 183.3000030517578 -93.82700347900389 L 182.6790008544922 -93.53299713134764 L 182.03199768066406 -93.30100250244139 L 181.36599731445312 -93.13500213623045 L 181 -93.08063507080077 L 181 -93.04956054687499 L 181 -92.99999999999999 L 180.2239990234375 -92.99999999999999 L 180 -92.99999999999999 L 179.54290771484375 -92.99999999999999 L 179.17562866210938 -92.99999999999999 L 178.80743408203125 -92.99999999999999 L 178.4468231201172 -92.99999999999999 L 178.07989501953125 -92.99999999999999 L 177.7035675048828 -92.99999999999999 L 177.31344604492188 -92.99999999999999 L 176.90667724609375 -92.99999999999999 L 176.48507690429688 -92.99999999999999 L 176.04449462890625 -92.99999999999999 L 175.5786895751953 -92.99999999999999 L 175.08241271972656 -92.99999999999999 L 174.53927612304688 -92.99999999999999 L 173 -92.99999999999999 L 127 -92.99999999999999 L 122.87999725341797 -92.99999999999999 L 121 -92.99999999999999 M 119.38099670410156 -158.09599304199216 L 120 -157.99800109863278 L 120.61900329589844 -158.09599304199216 L 121.177001953125 -158.38000488281247 L 121.62000274658203 -158.82299804687497 L 121.90399932861328 -159.38099670410153 L 121.9620590209961 -159.7440032958984 L 122.00299835205078 -159.99999999999997 L 121.90399932861328 -160.6190032958984 L 121.62000274658203 -161.17700195312497 L 121.177001953125 -161.61999511718747 L 120.61900329589844 -161.90499877929685 L 120 -162.00300598144528 L 119.38099670410156 -161.90499877929685 L 118.822998046875 -161.61999511718747 L 118.37999725341797 -161.17700195312497 L 118.09600067138672 -160.6190032958984 L 117.99800109863281 -159.99999999999997 L 118.03852844238281 -159.7440032958984 L 118.09600067138672 -159.38099670410153 L 118.37999725341797 -158.82299804687497 L 118.822998046875 -158.38000488281247 L 119.38099670410156 -158.09599304199216 M 118.78399658203125 -98.37448883056638 L 118.92473602294922 -98.30400085449216 L 119.33999633789062 -98.09600067138669 L 119.96900177001953 -97.99800109863278 L 120.59700012207031 -98.09600067138669 L 121.01226806640625 -98.30400085449216 L 121.16400146484375 -98.37999725341794 L 121.61399841308594 -98.82299804687497 L 121.90299987792969 -99.38099670410153 L 122.00299835205078 -99.99999999999997 L 121.90299987792969 -100.61900329589841 L 121.61399841308594 -101.17700195312497 L 121.16400146484375 -101.620002746582 L 120.59700012207031 -101.90399932861325 L 119.96900177001953 -102.00299835205075 L 119.33999633789062 -101.90399932861325 L 118.78399658203125 -101.62551116943357 L 118.77300262451172 -101.620002746582 L 118.322998046875 -101.17700195312497 L 118.03500366210938 -100.61900329589841 L 117.93499755859375 -99.99999999999997 L 118.03500366210938 -99.38099670410153 L 118.322998046875 -98.82299804687497 L 118.77300262451172 -98.37999725341794 L 118.78399658203125 -98.37448883056638 M 181.90499877929688 -159.38099670410153 L 181.96246337890625 -159.7440032958984 L 182.0030059814453 -159.99999999999997 L 181.90499877929688 -160.6190032958984 L 181.6199951171875 -161.17700195312497 L 181.177001953125 -161.61999511718747 L 180.61900329589844 -161.90499877929685 L 180.2239990234375 -161.96752929687497 L 180 -162.00300598144528 L 179.38099670410156 -161.90499877929685 L 178.822998046875 -161.61999511718747 L 178.3800048828125 -161.17700195312497 L 178.0959930419922 -160.6190032958984 L 177.9980010986328 -159.99999999999997 L 178.0385284423828 -159.7440032958984 L 178.0959930419922 -159.38099670410153 L 178.3800048828125 -158.82299804687497 L 178.822998046875 -158.38000488281247 L 179.38099670410156 -158.09599304199216 L 180 -157.99800109863278 L 180.2239990234375 -158.03346252441403 L 180.61900329589844 -158.09599304199216 L 181.177001953125 -158.38000488281247 L 181.6199951171875 -158.82299804687497 L 181.90499877929688 -159.38099670410153 M 180.66000366210938 -101.90399932861325 L 180.2239990234375 -101.97262573242185 L 180.031005859375 -102.00299835205075 L 179.4029998779297 -101.90399932861325 L 178.83599853515625 -101.620002746582 L 178.38600158691406 -101.17700195312497 L 178.0970001220703 -100.61900329589841 L 177.9980010986328 -99.99999999999997 L 178.0970001220703 -99.38099670410153 L 178.38600158691406 -98.82299804687497 L 178.83599853515625 -98.37999725341794 L 178.98773193359375 -98.30400085449216 L 179.4029998779297 -98.09600067138669 L 180.031005859375 -97.99800109863278 L 180.2239990234375 -98.02806854248044 L 180.66000366210938 -98.09600067138669 L 181.0752716064453 -98.30400085449216 L 181.2270050048828 -98.37999725341794 L 181.677001953125 -98.82299804687497 L 181.96499633789062 -99.38099670410153 L 182.06500244140625 -99.99999999999997 L 181.96499633789062 -100.61900329589841 L 181.677001953125 -101.17700195312497 L 181.2270050048828 -101.620002746582 L 180.66000366210938 -101.90399932861325 z" fill="none" stroke="rgb(255,0,0)" stroke-width="0.001mm" />
</svg>