<?xml version="1.0" standalone="no"?>
<!DOCTYPE svg PUBLIC "-//W3C//DTD SVG 1.1//EN"
  "http://www.w3.org/Graphics/SVG/1.1/DTD/svg11.dtd">
<svg width="76mm" height="75.99999999999997mm" viewBox="163 -207.99999999999994 76 75.99999999999997" xmlns="http://www.w3.org/2000/svg" version="1.1">
	<title>svgOutput</title>
	<desc>made with tinkercad</desc>
<path d="M 164.03399658203125 -139.3139953613281 L 164 -139.99999999999997 L 164 -140.45709228515622 L 164 -140.8243713378906 L 164 -141.19256591796872 L 164 -141.55317687988278 L 164 -141.92010498046872 L 164 -142.29643249511716 L 164 -142.6865539550781 L 164 -143.09332275390622 L 164 -143.5149230957031 L 164 -143.95550537109372 L 164 -144.42131042480466 L 164 -146.99999999999997 L 164 -192.99999999999994 L 164 -196.60800170898432 L 164 -199.99999999999994 L 164.03399658203125 -200.68600463867182 L 164.13499450683594 -201.36599731445307 L 164.30099487304688 -202.031997680664 L 164.5330047607422 -202.67900085449213 L 164.82699584960938 -203.30000305175776 L 165.17999267578125 -203.88900756835932 L 165.58900451660156 -204.44099426269526 L 165.9141387939453 -204.80000305175776 L 166.0500030517578 -204.94999694824213 L 166.5590057373047 -205.41099548339838 L 167.11099243164062 -205.8200073242187 L 167.6999969482422 -206.17300415039057 L 168.3209991455078 -206.46699523925776 L 168.96800231933594 -206.69900512695307 L 169.63400268554688 -206.86599731445307 L 170.31399536132812 -206.9660034179687 L 171 -206.99999999999994 L 171.45480346679688 -206.99999999999994 L 172.03199768066406 -206.99999999999994 L 172.19256591796875 -206.99999999999994 L 172.5531768798828 -206.99999999999994 L 172.92010498046875 -206.99999999999994 L 173.2964324951172 -206.99999999999994 L 173.68655395507812 -206.99999999999994 L 174.09332275390625 -206.99999999999994 L 178 -206.99999999999994 L 224 -206.99999999999994 L 229.37600708007812 -206.99999999999994 L 231 -206.99999999999994 L 231.68600463867188 -206.9660034179687 L 232.36599731445312 -206.86599731445307 L 233.03199768066406 -206.69900512695307 L 233.6790008544922 -206.46699523925776 L 234.3000030517578 -206.17300415039057 L 234.88900756835938 -205.8200073242187 L 235.4409942626953 -205.41099548339838 L 235.9499969482422 -204.94999694824213 L 236.0858612060547 -204.80000305175776 L 236.41099548339844 -204.44099426269526 L 236.82000732421875 -203.88900756835932 L 237.17300415039062 -203.30000305175776 L 237.4669952392578 -202.67900085449213 L 237.69900512695312 -202.031997680664 L 237.86599731445312 -201.36599731445307 L 237.96600341796875 -200.68600463867182 L 238 -199.99999999999994 L 238 -199.54519653320307 L 238 -199.1683959960937 L 238 -198.8074340820312 L 238 -198.44682312011713 L 238 -198.0798950195312 L 238 -196.60800170898432 L 238 -196.48507690429682 L 238 -196.0444946289062 L 238 -195.57868957519526 L 238 -195.0824127197265 L 238 -194.53927612304682 L 238 -193.9718170166015 L 238 -193.346939086914 L 238 -192.99999999999994 L 238 -146.99999999999997 L 238 -139.99999999999997 L 237.96600341796875 -139.3139953613281 L 237.95864868164062 -139.26400756835935 L 237.86599731445312 -138.63400268554685 L 237.69900512695312 -137.9680023193359 L 237.5679931640625 -137.60266113281247 L 237.4669952392578 -137.32099914550778 L 237.17300415039062 -136.69999694824216 L 236.82000732421875 -136.1109924316406 L 236.41099548339844 -135.55900573730466 L 235.9499969482422 -135.05000305175778 L 235.4409942626953 -134.58900451660153 L 234.88900756835938 -134.17999267578122 L 234.3000030517578 -133.82699584960935 L 233.6790008544922 -133.53300476074216 L 233.03199768066406 -133.30099487304685 L 232.36599731445312 -133.1349945068359 L 231.68600463867188 -133.03399658203122 L 231 -132.99999999999997 L 230.54290771484375 -132.99999999999997 L 230.17562866210938 -132.99999999999997 L 229.37600708007812 -132.99999999999997 L 229.07989501953125 -132.99999999999997 L 228.7035675048828 -132.99999999999997 L 228.31344604492188 -132.99999999999997 L 227.90667724609375 -132.99999999999997 L 227.48507690429688 -132.99999999999997 L 227.04449462890625 -132.99999999999997 L 226.5786895751953 -132.99999999999997 L 226.08241271972656 -132.99999999999997 L 225.53927612304688 -132.99999999999997 L 224.97181701660156 -132.99999999999997 L 224 -132.99999999999997 L 178 -132.99999999999997 L 172.03199768066406 -132.99999999999997 L 171 -132.99999999999997 L 170.31399536132812 -133.03399658203122 L 169.63400268554688 -133.1349945068359 L 168.96800231933594 -133.30099487304685 L 168.93499755859375 -133.31283569335935 L 168.3209991455078 -133.53300476074216 L 167.93600463867188 -133.71527099609372 L 167.6999969482422 -133.82699584960935 L 167.11099243164062 -134.17999267578122 L 166.5590057373047 -134.58900451660153 L 166.0500030517578 -135.05000305175778 L 165.58900451660156 -135.55900573730466 L 165.17999267578125 -136.1109924316406 L 164.82699584960938 -136.69999694824216 L 164.5330047607422 -137.32099914550778 L 164.30099487304688 -137.9680023193359 L 164.13499450683594 -138.63400268554685 L 164.0414276123047 -139.26400756835935 L 164.03399658203125 -139.3139953613281 M 172.16000366210938 -141.6159973144531 L 172.03199768066406 -141.68022155761716 L 171.593994140625 -141.89999389648435 L 170.96600341796875 -141.99800109863278 L 170.33799743652344 -141.89999389648435 L 169.77200317382812 -141.6159973144531 L 169.32200622558594 -141.1730041503906 L 169.03399658203125 -140.6159973144531 L 168.93499755859375 -139.99800109863278 L 169.03399658203125 -139.38000488281247 L 169.0938720703125 -139.26400756835935 L 169.32200622558594 -138.8220062255859 L 169.77200317382812 -138.38000488281247 L 170.33799743652344 -138.0950012207031 L 170.96600341796875 -137.99800109863278 L 171.593994140625 -138.0950012207031 L 172.03199768066406 -138.31555175781247 L 172.16000366210938 -138.38000488281247 L 172.60899353027344 -138.8220062255859 L 172.83792114257812 -139.26400756835935 L 172.8979949951172 -139.38000488281247 L 172.9969940185547 -139.99800109863278 L 172.8979949951172 -140.6159973144531 L 172.60899353027344 -141.1730041503906 L 172.16000366210938 -141.6159973144531 M 172.8990020751953 -200.61999511718744 L 172.8562469482422 -200.7039947509765 L 172.61500549316406 -201.177993774414 L 172.17300415039062 -201.62100219726557 L 172.03199768066406 -201.6927642822265 L 171.61500549316406 -201.90499877929682 L 170.9969940185547 -202.00300598144526 L 170.37899780273438 -201.90499877929682 L 169.82200622558594 -201.62100219726557 L 169.37899780273438 -201.177993774414 L 169.13775634765625 -200.7039947509765 L 169.09500122070312 -200.61999511718744 L 168.9969940185547 -200.00199890136713 L 169.09500122070312 -199.38400268554682 L 169.37899780273438 -198.82699584960932 L 169.82200622558594 -198.38400268554682 L 170.37899780273438 -198.10000610351557 L 170.9969940185547 -198.00199890136713 L 171.61500549316406 -198.10000610351557 L 172.03199768066406 -198.31224060058588 L 172.17300415039062 -198.38400268554682 L 172.61500549316406 -198.82699584960932 L 172.8990020751953 -199.38400268554682 L 172.9969940185547 -200.00199890136713 L 172.8990020751953 -200.61999511718744 M 229.38999938964844 -141.1730041503906 L 229.37600708007812 -141.14601135253903 L 229.1009979248047 -140.6159973144531 L 229.0019989013672 -139.99800109863278 L 229.1009979248047 -139.38000488281247 L 229.16107177734375 -139.26400756835935 L 229.37600708007812 -138.8490295410156 L 229.38999938964844 -138.8220062255859 L 229.83900451660156 -138.38000488281247 L 230.40499877929688 -138.0950012207031 L 231.0330047607422 -137.99800109863278 L 231.66099548339844 -138.0950012207031 L 232.2270050048828 -138.38000488281247 L 232.677001953125 -138.8220062255859 L 232.90513610839844 -139.26400756835935 L 232.96499633789062 -139.38000488281247 L 233.06500244140625 -139.99800109863278 L 232.96499633789062 -140.6159973144531 L 232.677001953125 -141.1730041503906 L 232.2270050048828 -141.6159973144531 L 231.66099548339844 -141.89999389648435 L 231.0330047607422 -141.99800109863278 L 230.40499877929688 -141.89999389648435 L 229.83900451660156 -141.6159973144531 L 229.38999938964844 -141.1730041503906 M 230.38400268554688 -198.10000610351557 L 231.0019989013672 -198.00199890136713 L 231.6199951171875 -198.10000610351557 L 232.17799377441406 -198.38400268554682 L 232.6199951171875 -198.82699584960932 L 232.9040069580078 -199.38400268554682 L 233.0019989013672 -200.00199890136713 L 232.9040069580078 -200.61999511718744 L 232.8612518310547 -200.7039947509765 L 232.6199951171875 -201.177993774414 L 232.17799377441406 -201.62100219726557 L 231.6199951171875 -201.90499877929682 L 231.0019989013672 -202.00300598144526 L 230.38400268554688 -201.90499877929682 L 229.8260040283203 -201.62100219726557 L 229.38400268554688 -201.177993774414 L 229.37600708007812 -201.16227722167963 L 229.1427459716797 -200.7039947509765 L 229.10000610351562 -200.61999511718744 L 229.0019989013672 -200.00199890136713 L 229.10000610351562 -199.38400268554682 L 229.37600708007812 -198.84269714355463 L 229.38400268554688 -198.82699584960932 L 229.8260040283203 -198.38400268554682 L 230.38400268554688 -198.10000610351557 z" fill="none" stroke="rgb(255,0,0)" stroke-width="0.001mm" />
</svg>