<?xml version="1.0" standalone="no"?>
<!DOCTYPE svg PUBLIC "-//W3C//DTD SVG 1.1//EN"
  "http://www.w3.org/Graphics/SVG/1.1/DTD/svg11.dtd">
<svg width="76mm" height="75.99999999999997mm" viewBox="254 -207.99999999999994 76 75.99999999999997" xmlns="http://www.w3.org/2000/svg" version="1.1">
	<title>svgOutput</title>
	<desc>made with tinkercad</desc>
<path d="M 328.6990051269531 -137.9680023193359 L 328.4670104980469 -137.32099914550778 L 328.1730041503906 -136.69999694824216 L 327.82000732421875 -136.1109924316406 L 327.67999267578125 -135.92205810546872 L 327.4110107421875 -135.55900573730466 L 326.95001220703125 -135.05000305175778 L 326.4410095214844 -134.58900451660153 L 325.8890075683594 -134.17999267578122 L 325.29998779296875 -133.82699584960935 L 324.6789855957031 -133.53300476074216 L 324.0320129394531 -133.30099487304685 L 323.3659973144531 -133.1349945068359 L 323 -133.08064270019528 L 323 -133.04956054687497 L 323 -132.99999999999997 L 263 -132.99999999999997 L 263 -133.04956054687497 L 263 -133.08064270019528 L 262.6860046386719 -133.03399658203122 L 262.1440124511719 -133.00714111328122 L 262 -132.99999999999997 L 261.3139953613281 -133.03399658203122 L 260.6340026855469 -133.1349945068359 L 259.9679870605469 -133.30099487304685 L 259.93499755859375 -133.31283569335935 L 259.3210144042969 -133.53300476074216 L 258.70001220703125 -133.82699584960935 L 258.1109924316406 -134.17999267578122 L 257.5589904785156 -134.58900451660153 L 257.04998779296875 -135.05000305175778 L 256.5889892578125 -135.55900573730466 L 256.17999267578125 -136.1109924316406 L 255.82699584960938 -136.69999694824216 L 255.5330047607422 -137.32099914550778 L 255.30099487304688 -137.9680023193359 L 255.13499450683594 -138.63400268554685 L 255.0414276123047 -139.26400756835935 L 255.03399658203125 -139.3139953613281 L 255 -139.99999999999997 L 255 -199.99999999999994 L 255.03399658203125 -200.68600463867182 L 255.13499450683594 -201.36599731445307 L 255.30099487304688 -202.031997680664 L 255.5330047607422 -202.67900085449213 L 255.82699584960938 -203.30000305175776 L 256.17999267578125 -203.88900756835932 L 256.5889892578125 -204.44099426269526 L 256.9141540527344 -204.80000305175776 L 257.04998779296875 -204.94999694824213 L 257.5589904785156 -205.41099548339838 L 258.1109924316406 -205.8200073242187 L 258.70001220703125 -206.17300415039057 L 259.3210144042969 -206.46699523925776 L 259.9679870605469 -206.69900512695307 L 260.6340026855469 -206.86599731445307 L 261.3139953613281 -206.9660034179687 L 262 -206.99999999999994 L 262.1440124511719 -206.9928588867187 L 262.6860046386719 -206.9660034179687 L 263 -206.91983032226557 L 263 -206.957778930664 L 263 -206.99999999999994 L 264.00299072265625 -206.99999999999994 L 319.99798583984375 -206.99999999999994 L 323 -206.99999999999994 L 323 -206.957778930664 L 323 -206.91983032226557 L 323.3659973144531 -206.86599731445307 L 324.00299072265625 -206.70626831054682 L 324.0320129394531 -206.69900512695307 L 324.6789855957031 -206.46699523925776 L 325.29998779296875 -206.17300415039057 L 325.8890075683594 -205.8200073242187 L 326.4410095214844 -205.41099548339838 L 326.95001220703125 -204.94999694824213 L 327.4110107421875 -204.44099426269526 L 327.67999267578125 -204.0779418945312 L 327.82000732421875 -203.88900756835932 L 328.1730041503906 -203.30000305175776 L 328.4670104980469 -202.67900085449213 L 328.6990051269531 -202.031997680664 L 328.8659973144531 -201.36599731445307 L 328.96600341796875 -200.68600463867182 L 329 -199.99999999999994 L 329 -197.99800109863276 L 329 -139.99999999999997 L 328.96600341796875 -139.3139953613281 L 328.9586486816406 -139.26400756835935 L 328.8659973144531 -138.63400268554685 L 328.6990051269531 -137.9680023193359 M 323 -138.26629638671872 L 323.22698974609375 -138.38000488281247 L 323.5840148925781 -138.73144531249997 L 323.677001953125 -138.82299804687497 L 323.90460205078125 -139.26400756835935 L 323.9649963378906 -139.38099670410153 L 324.06500244140625 -139.99999999999997 L 323.9649963378906 -140.6190032958984 L 323.677001953125 -141.17700195312497 L 323.5840148925781 -141.26855468749997 L 323.22698974609375 -141.61999511718747 L 323 -141.73410034179685 L 322.6600036621094 -141.90499877929685 L 322.031005859375 -142.00300598144528 L 321.40301513671875 -141.90499877929685 L 320.83599853515625 -141.61999511718747 L 320.385986328125 -141.17700195312497 L 320.09698486328125 -140.6190032958984 L 319.99798583984375 -139.99999999999997 L 320.09698486328125 -139.38099670410153 L 320.1575927734375 -139.26400756835935 L 320.385986328125 -138.82299804687497 L 320.83599853515625 -138.38000488281247 L 321.40301513671875 -138.09599304199216 L 322.031005859375 -137.99800109863278 L 322.6600036621094 -138.09599304199216 L 323 -138.26629638671872 M 323.90399169921875 -200.61900329589838 L 323.8607482910156 -200.7039947509765 L 323.6199951171875 -201.17700195312494 L 323.177001953125 -201.61999511718744 L 323 -201.71040344238276 L 322.6189880371094 -201.90499877929682 L 322 -202.00300598144526 L 321.3810119628906 -201.90499877929682 L 320.822998046875 -201.61999511718744 L 320.3800048828125 -201.17700195312494 L 320.1392517089844 -200.7039947509765 L 320.09600830078125 -200.61900329589838 L 319.99798583984375 -199.99999999999994 L 320.09600830078125 -199.3809967041015 L 320.3800048828125 -198.82299804687494 L 320.822998046875 -198.38000488281244 L 321.3810119628906 -198.09599304199213 L 322 -197.99800109863276 L 322.6189880371094 -198.09599304199213 L 323 -198.28991699218744 L 323.177001953125 -198.38000488281244 L 323.6199951171875 -198.82299804687494 L 323.90399169921875 -199.3809967041015 L 324.00299072265625 -199.99999999999994 L 323.90399169921875 -200.61900329589838 M 260.09539794921875 -139.26400756835935 L 260.322998046875 -138.82299804687497 L 260.77301025390625 -138.38000488281247 L 261.3399963378906 -138.09599304199216 L 261.968994140625 -137.99800109863278 L 262.1440124511719 -138.02531433105466 L 262.59698486328125 -138.09599304199216 L 263 -138.29785156249997 L 263.16400146484375 -138.38000488281247 L 263.614013671875 -138.82299804687497 L 263.90301513671875 -139.38099670410153 L 264.00299072265625 -139.99999999999997 L 263.90301513671875 -140.6190032958984 L 263.614013671875 -141.17700195312497 L 263.16400146484375 -141.61999511718747 L 263 -141.70243835449216 L 262.59698486328125 -141.90499877929685 L 262.1440124511719 -141.9756927490234 L 261.968994140625 -142.00300598144528 L 261.3399963378906 -141.90499877929685 L 260.77301025390625 -141.61999511718747 L 260.322998046875 -141.17700195312497 L 260.0350036621094 -140.6190032958984 L 259.99798583984375 -140.38996887207028 L 259.93499755859375 -139.99999999999997 L 260.0350036621094 -139.38099670410153 L 260.09539794921875 -139.26400756835935 M 263 -201.71040344238276 L 262.6189880371094 -201.90499877929682 L 262.1440124511719 -201.98020935058588 L 262 -202.00300598144526 L 261.3810119628906 -201.90499877929682 L 260.822998046875 -201.61999511718744 L 260.3800048828125 -201.17700195312494 L 260.1392517089844 -200.7039947509765 L 260.09600830078125 -200.61900329589838 L 259.99798583984375 -199.99999999999994 L 260.09600830078125 -199.3809967041015 L 260.3800048828125 -198.82299804687494 L 260.822998046875 -198.38000488281244 L 261.3810119628906 -198.09599304199213 L 262 -197.99800109863276 L 262.6189880371094 -198.09599304199213 L 263 -198.28991699218744 L 263.177001953125 -198.38000488281244 L 263.6199951171875 -198.82299804687494 L 263.90399169921875 -199.3809967041015 L 264.00299072265625 -199.99999999999994 L 263.90399169921875 -200.61900329589838 L 263.8607482910156 -200.7039947509765 L 263.6199951171875 -201.17700195312494 L 263.177001953125 -201.61999511718744 L 263 -201.71040344238276 M 263 -194.10018920898432 L 262.3009948730469 -193.4190063476562 L 261.99798583984375 -192.18600463867182 L 261.99798583984375 -162.8139953613281 L 262.3009948730469 -161.58099365234372 L 263 -160.8998107910156 L 263.2040100097656 -160.70100402832028 L 264.00299072265625 -160.42195129394528 L 264.7130126953125 -160.17399597167966 L 266.82501220703125 -159.99800109863278 L 317.17498779296875 -159.99800109863278 L 319.2869873046875 -160.17399597167966 L 319.99798583984375 -160.42230224609372 L 320.7959899902344 -160.70100402832028 L 321.6990051269531 -161.58099365234372 L 322.00299072265625 -162.8139953613281 L 322.00299072265625 -192.18600463867182 L 321.6990051269531 -193.4190063476562 L 320.7959899902344 -194.29899597167963 L 319.99798583984375 -194.5776977539062 L 319.2869873046875 -194.82600402832026 L 317.17498779296875 -195.00300598144526 L 266.82501220703125 -195.00300598144526 L 264.7130126953125 -194.82600402832026 L 264.00299072265625 -194.57804870605463 L 263.2040100097656 -194.29899597167963 L 263 -194.10018920898432 z" fill="none" stroke="rgb(255,0,0)" stroke-width="0.001mm" />
</svg>