<?xml version="1.0" standalone="no"?>
<!DOCTYPE svg PUBLIC "-//W3C//DTD SVG 1.1//EN"
  "http://www.w3.org/Graphics/SVG/1.1/DTD/svg11.dtd">
<svg width="76mm" height="75.99999999999997mm" viewBox="163 -207.99999999999994 76 75.99999999999997" xmlns="http://www.w3.org/2000/svg" version="1.1">
	<title>svgOutput</title>
	<desc>made with tinkercad</desc>
<path d="M 164.03399658203125 -129.3139953613281 L 164 -129.99999999999997 L 164 -130.45709228515622 L 164 -130.8243713378906 L 164 -131.19256591796872 L 164 -131.55317687988278 L 164 -131.92010498046872 L 164 -132.29643249511716 L 164 -132.6865539550781 L 164 -133.09332275390622 L 164 -133.5149230957031 L 164 -133.95550537109372 L 164 -134.42131042480466 L 164 -136.99999999999997 L 164 -192.99999999999994 L 164 -196.60800170898432 L 164 -199.99999999999994 L 164.03399658203125 -200.68600463867182 L 164.13499450683594 -201.36599731445307 L 164.30099487304688 -202.031997680664 L 164.5330047607422 -202.67900085449213 L 164.82699584960938 -203.30000305175776 L 165.17999267578125 -203.88900756835932 L 165.58900451660156 -204.44099426269526 L 165.9141387939453 -204.80000305175776 L 166.0500030517578 -204.94999694824213 L 166.5590057373047 -205.41099548339838 L 167.11099243164062 -205.8200073242187 L 167.6999969482422 -206.17300415039057 L 168.3209991455078 -206.46699523925776 L 168.96800231933594 -206.69900512695307 L 169.63400268554688 -206.86599731445307 L 170.31399536132812 -206.9660034179687 L 171 -206.99999999999994 L 171.45480346679688 -206.99999999999994 L 172.03199768066406 -206.99999999999994 L 172.19256591796875 -206.99999999999994 L 172.5531768798828 -206.99999999999994 L 172.92010498046875 -206.99999999999994 L 173.2964324951172 -206.99999999999994 L 173.68655395507812 -206.99999999999994 L 174.09332275390625 -206.99999999999994 L 178 -206.99999999999994 L 205 -206.99999999999994 L 210.37600708007812 -206.99999999999994 L 212 -206.99999999999994 L 212.68600463867188 -206.9660034179687 L 213.36599731445312 -206.86599731445307 L 214.03199768066406 -206.69900512695307 L 214.6790008544922 -206.46699523925776 L 215.3000030517578 -206.17300415039057 L 215.88900756835938 -205.8200073242187 L 216.4409942626953 -205.41099548339838 L 216.9499969482422 -204.94999694824213 L 217.0858612060547 -204.80000305175776 L 217.41099548339844 -204.44099426269526 L 217.82000732421875 -203.88900756835932 L 218.17300415039062 -203.30000305175776 L 218.4669952392578 -202.67900085449213 L 218.69900512695312 -202.031997680664 L 218.86599731445312 -201.36599731445307 L 218.96600341796875 -200.68600463867182 L 219 -199.99999999999994 L 219 -199.54519653320307 L 219 -199.1683959960937 L 219 -198.8074340820312 L 219 -198.44682312011713 L 219 -198.0798950195312 L 219 -196.60800170898432 L 219 -196.48507690429682 L 219 -196.0444946289062 L 219 -195.57868957519526 L 219 -195.0824127197265 L 219 -194.53927612304682 L 219 -193.9718170166015 L 219 -193.346939086914 L 219 -192.99999999999994 L 219 -136.99999999999997 L 219 -129.99999999999997 L 218.96600341796875 -129.3139953613281 L 218.95864868164062 -129.26400756835935 L 218.86599731445312 -128.63400268554685 L 218.69900512695312 -127.96800231933591 L 218.5679931640625 -127.60266113281247 L 218.4669952392578 -127.32099914550778 L 218.17300415039062 -126.69999694824216 L 217.82000732421875 -126.1109924316406 L 217.41099548339844 -125.55900573730466 L 216.9499969482422 -125.05000305175778 L 216.4409942626953 -124.58900451660153 L 215.88900756835938 -124.17999267578122 L 215.3000030517578 -123.82699584960935 L 214.6790008544922 -123.53300476074216 L 214.03199768066406 -123.30099487304685 L 213.36599731445312 -123.13499450683591 L 212.68600463867188 -123.03399658203122 L 212 -122.99999999999997 L 211.54290771484375 -122.99999999999997 L 211.17562866210938 -122.99999999999997 L 210.37600708007812 -122.99999999999997 L 210.07989501953125 -122.99999999999997 L 209.7035675048828 -122.99999999999997 L 209.31344604492188 -122.99999999999997 L 208.90667724609375 -122.99999999999997 L 208.48507690429688 -122.99999999999997 L 208.04449462890625 -122.99999999999997 L 207.5786895751953 -122.99999999999997 L 207.08241271972656 -122.99999999999997 L 206.53927612304688 -122.99999999999997 L 205.97181701660156 -122.99999999999997 L 205 -122.99999999999997 L 178 -122.99999999999997 L 172.03199768066406 -122.99999999999997 L 171 -122.99999999999997 L 170.31399536132812 -123.03399658203122 L 169.63400268554688 -123.13499450683591 L 168.96800231933594 -123.30099487304685 L 168.93499755859375 -123.31283569335935 L 168.3209991455078 -123.53300476074216 L 167.93600463867188 -123.71527099609372 L 167.6999969482422 -123.82699584960935 L 167.11099243164062 -124.17999267578122 L 166.5590057373047 -124.58900451660153 L 166.0500030517578 -125.05000305175778 L 165.58900451660156 -125.55900573730466 L 165.17999267578125 -126.1109924316406 L 164.82699584960938 -126.69999694824216 L 164.5330047607422 -127.32099914550778 L 164.30099487304688 -127.96800231933591 L 164.13499450683594 -128.63400268554685 L 164.0414276123047 -129.26400756835935 L 164.03399658203125 -129.3139953613281 M 172.16000366210938 -131.6159973144531 L 172.03199768066406 -131.68022155761716 L 171.593994140625 -131.89999389648435 L 170.96600341796875 -131.99800109863278 L 170.33799743652344 -131.89999389648435 L 169.77200317382812 -131.6159973144531 L 169.32200622558594 -131.1730041503906 L 169.03399658203125 -130.6159973144531 L 168.93499755859375 -129.99800109863278 L 169.03399658203125 -129.38000488281247 L 169.0938720703125 -129.26400756835935 L 169.32200622558594 -128.8220062255859 L 169.77200317382812 -128.38000488281247 L 170.33799743652344 -128.0950012207031 L 170.96600341796875 -127.99800109863278 L 171.593994140625 -128.0950012207031 L 172.03199768066406 -128.31555175781247 L 172.16000366210938 -128.38000488281247 L 172.60899353027344 -128.8220062255859 L 172.83792114257812 -129.26400756835935 L 172.8979949951172 -129.38000488281247 L 172.9969940185547 -129.99800109863278 L 172.8979949951172 -130.6159973144531 L 172.60899353027344 -131.1730041503906 L 172.16000366210938 -131.6159973144531 M 172.8990020751953 -200.61999511718744 L 172.8562469482422 -200.7039947509765 L 172.61500549316406 -201.177993774414 L 172.17300415039062 -201.62100219726557 L 172.03199768066406 -201.6927642822265 L 171.61500549316406 -201.90499877929682 L 170.9969940185547 -202.00300598144526 L 170.37899780273438 -201.90499877929682 L 169.82200622558594 -201.62100219726557 L 169.37899780273438 -201.177993774414 L 169.13775634765625 -200.7039947509765 L 169.09500122070312 -200.61999511718744 L 168.9969940185547 -200.00199890136713 L 169.09500122070312 -199.38400268554682 L 169.37899780273438 -198.82699584960932 L 169.82200622558594 -198.38400268554682 L 170.37899780273438 -198.10000610351557 L 170.9969940185547 -198.00199890136713 L 171.61500549316406 -198.10000610351557 L 172.03199768066406 -198.31224060058588 L 172.17300415039062 -198.38400268554682 L 172.61500549316406 -198.82699584960932 L 172.8990020751953 -199.38400268554682 L 172.9969940185547 -200.00199890136713 L 172.8990020751953 -200.61999511718744 M 210.38999938964844 -131.1730041503906 L 210.37600708007812 -131.14601135253903 L 210.1009979248047 -130.6159973144531 L 210.0019989013672 -129.99800109863278 L 210.1009979248047 -129.38000488281247 L 210.16107177734375 -129.26400756835935 L 210.37600708007812 -128.8490295410156 L 210.38999938964844 -128.8220062255859 L 210.83900451660156 -128.38000488281247 L 211.40499877929688 -128.0950012207031 L 212.0330047607422 -127.99800109863278 L 212.66099548339844 -128.0950012207031 L 213.2270050048828 -128.38000488281247 L 213.677001953125 -128.8220062255859 L 213.90513610839844 -129.26400756835935 L 213.96499633789062 -129.38000488281247 L 214.06500244140625 -129.99800109863278 L 213.96499633789062 -130.6159973144531 L 213.677001953125 -131.1730041503906 L 213.2270050048828 -131.6159973144531 L 212.66099548339844 -131.89999389648435 L 212.0330047607422 -131.99800109863278 L 211.40499877929688 -131.89999389648435 L 210.83900451660156 -131.6159973144531 L 210.38999938964844 -131.1730041503906 M 211.38400268554688 -198.10000610351557 L 212.0019989013672 -198.00199890136713 L 212.6199951171875 -198.10000610351557 L 213.17799377441406 -198.38400268554682 L 213.6199951171875 -198.82699584960932 L 213.9040069580078 -199.38400268554682 L 214.0019989013672 -200.00199890136713 L 213.9040069580078 -200.61999511718744 L 213.8612518310547 -200.7039947509765 L 213.6199951171875 -201.177993774414 L 213.17799377441406 -201.62100219726557 L 212.6199951171875 -201.90499877929682 L 212.0019989013672 -202.00300598144526 L 211.38400268554688 -201.90499877929682 L 210.8260040283203 -201.62100219726557 L 210.38400268554688 -201.177993774414 L 210.37600708007812 -201.16227722167963 L 210.1427459716797 -200.7039947509765 L 210.10000610351562 -200.61999511718744 L 210.0019989013672 -200.00199890136713 L 210.10000610351562 -199.38400268554682 L 210.37600708007812 -198.84269714355463 L 210.38400268554688 -198.82699584960932 L 210.8260040283203 -198.38400268554682 L 211.38400268554688 -198.10000610351557 z" fill="none" stroke="rgb(255,0,0)" stroke-width="0.001mm" />
</svg>



