<?xml version="1.0" standalone="no"?>
<!DOCTYPE svg PUBLIC "-//W3C//DTD SVG 1.1//EN"
  "http://www.w3.org/Graphics/SVG/1.1/DTD/svg11.dtd">
<svg width="76mm" height="75.99999999999997mm" viewBox="163 -207.99999999999994 76 75.99999999999997" xmlns="http://www.w3.org/2000/svg" version="1.1">
	<title>svgOutput</title>
	<desc>made with tinkercad</desc>
<path d="M 164.03399658203125 -127.3139953613281 L 164 -127.99999999999997 L 164 -128.45709228515622 L 164 -128.8243713378906 L 164 -129.19256591796872 L 164 -129.55317687988278 L 164 -129.92010498046872 L 164 -130.29643249511716 L 164 -130.6865539550781 L 164 -131.09332275390622 L 164 -131.5149230957031 L 164 -131.95550537109372 L 164 -132.42131042480466 L 164 -134.99999999999997 L 164 -192.99999999999994 L 164 -196.60800170898432 L 164 -199.99999999999994 L 164.03399658203125 -200.68600463867182 L 164.13499450683594 -201.36599731445307 L 164.30099487304688 -202.031997680664 L 164.5330047607422 -202.67900085449213 L 164.82699584960938 -203.30000305175776 L 165.17999267578125 -203.88900756835932 L 165.58900451660156 -204.44099426269526 L 165.9141387939453 -204.80000305175776 L 166.0500030517578 -204.94999694824213 L 166.5590057373047 -205.41099548339838 L 167.11099243164062 -205.8200073242187 L 167.6999969482422 -206.17300415039057 L 168.3209991455078 -206.46699523925776 L 168.96800231933594 -206.69900512695307 L 169.63400268554688 -206.86599731445307 L 170.31399536132812 -206.9660034179687 L 171 -206.99999999999994 L 171.45480346679688 -206.99999999999994 L 172.03199768066406 -206.99999999999994 L 172.19256591796875 -206.99999999999994 L 172.5531768798828 -206.99999999999994 L 172.92010498046875 -206.99999999999994 L 173.2964324951172 -206.99999999999994 L 173.68655395507812 -206.99999999999994 L 174.09332275390625 -206.99999999999994 L 178 -206.99999999999994 L 213 -206.99999999999994 L 218.37600708007812 -206.99999999999994 L 220 -206.99999999999994 L 220.68600463867188 -206.9660034179687 L 221.36599731445312 -206.86599731445307 L 222.03199768066406 -206.69900512695307 L 222.6790008544922 -206.46699523925776 L 223.3000030517578 -206.17300415039057 L 223.88900756835938 -205.8200073242187 L 224.4409942626953 -205.41099548339838 L 224.9499969482422 -204.94999694824213 L 225.0858612060547 -204.80000305175776 L 225.41099548339844 -204.44099426269526 L 225.82000732421875 -203.88900756835932 L 226.17300415039062 -203.30000305175776 L 226.4669952392578 -202.67900085449213 L 226.69900512695312 -202.031997680664 L 226.86599731445312 -201.36599731445307 L 226.96600341796875 -200.68600463867182 L 227 -199.99999999999994 L 227 -199.54519653320307 L 227 -199.1683959960937 L 227 -198.8074340820312 L 227 -198.44682312011713 L 227 -198.0798950195312 L 227 -196.60800170898432 L 227 -196.48507690429682 L 227 -196.0444946289062 L 227 -195.57868957519526 L 227 -195.0824127197265 L 227 -194.53927612304682 L 227 -193.9718170166015 L 227 -193.346939086914 L 227 -192.99999999999994 L 227 -134.99999999999997 L 227 -127.99999999999997 L 226.96600341796875 -127.3139953613281 L 226.95864868164062 -127.26400756835935 L 226.86599731445312 -126.63400268554685 L 226.69900512695312 -125.96800231933591 L 226.5679931640625 -125.60266113281247 L 226.4669952392578 -125.32099914550778 L 226.17300415039062 -124.69999694824216 L 225.82000732421875 -124.1109924316406 L 225.41099548339844 -123.55900573730466 L 224.9499969482422 -123.05000305175778 L 224.4409942626953 -122.58900451660153 L 223.88900756835938 -122.17999267578122 L 223.3000030517578 -121.82699584960935 L 222.6790008544922 -121.53300476074216 L 222.03199768066406 -121.30099487304685 L 221.36599731445312 -121.13499450683591 L 220.68600463867188 -121.03399658203122 L 220 -120.99999999999997 L 219.54290771484375 -120.99999999999997 L 219.17562866210938 -120.99999999999997 L 218.37600708007812 -120.99999999999997 L 218.07989501953125 -120.99999999999997 L 217.7035675048828 -120.99999999999997 L 217.31344604492188 -120.99999999999997 L 216.90667724609375 -120.99999999999997 L 216.48507690429688 -120.99999999999997 L 216.04449462890625 -120.99999999999997 L 215.5786895751953 -120.99999999999997 L 215.08241271972656 -120.99999999999997 L 214.53927612304688 -120.99999999999997 L 213.97181701660156 -120.99999999999997 L 213 -120.99999999999997 L 178 -120.99999999999997 L 172.03199768066406 -120.99999999999997 L 171 -120.99999999999997 L 170.31399536132812 -121.03399658203122 L 169.63400268554688 -121.13499450683591 L 168.96800231933594 -121.30099487304685 L 168.93499755859375 -121.31283569335935 L 168.3209991455078 -121.53300476074216 L 167.93600463867188 -121.71527099609372 L 167.6999969482422 -121.82699584960935 L 167.11099243164062 -122.17999267578122 L 166.5590057373047 -122.58900451660153 L 166.0500030517578 -123.05000305175778 L 165.58900451660156 -123.55900573730466 L 165.17999267578125 -124.1109924316406 L 164.82699584960938 -124.69999694824216 L 164.5330047607422 -125.32099914550778 L 164.30099487304688 -125.96800231933591 L 164.13499450683594 -126.63400268554685 L 164.0414276123047 -127.26400756835935 L 164.03399658203125 -127.3139953613281 M 172.16000366210938 -129.6159973144531 L 172.03199768066406 -129.68022155761716 L 171.593994140625 -129.89999389648435 L 170.96600341796875 -129.99800109863278 L 170.33799743652344 -129.89999389648435 L 169.77200317382812 -129.6159973144531 L 169.32200622558594 -129.1730041503906 L 169.03399658203125 -128.6159973144531 L 168.93499755859375 -127.99800109863278 L 169.03399658203125 -127.38000488281247 L 169.0938720703125 -127.26400756835935 L 169.32200622558594 -126.82200622558591 L 169.77200317382812 -126.38000488281247 L 170.33799743652344 -126.0950012207031 L 170.96600341796875 -125.99800109863278 L 171.593994140625 -126.0950012207031 L 172.03199768066406 -126.31555175781247 L 172.16000366210938 -126.38000488281247 L 172.60899353027344 -126.82200622558591 L 172.83792114257812 -127.26400756835935 L 172.8979949951172 -127.38000488281247 L 172.9969940185547 -127.99800109863278 L 172.8979949951172 -128.6159973144531 L 172.60899353027344 -129.1730041503906 L 172.16000366210938 -129.6159973144531 M 172.8990020751953 -200.61999511718744 L 172.8562469482422 -200.7039947509765 L 172.61500549316406 -201.177993774414 L 172.17300415039062 -201.62100219726557 L 172.03199768066406 -201.6927642822265 L 171.61500549316406 -201.90499877929682 L 170.9969940185547 -202.00300598144526 L 170.37899780273438 -201.90499877929682 L 169.82200622558594 -201.62100219726557 L 169.37899780273438 -201.177993774414 L 169.13775634765625 -200.7039947509765 L 169.09500122070312 -200.61999511718744 L 168.9969940185547 -200.00199890136713 L 169.09500122070312 -199.38400268554682 L 169.37899780273438 -198.82699584960932 L 169.82200622558594 -198.38400268554682 L 170.37899780273438 -198.10000610351557 L 170.9969940185547 -198.00199890136713 L 171.61500549316406 -198.10000610351557 L 172.03199768066406 -198.31224060058588 L 172.17300415039062 -198.38400268554682 L 172.61500549316406 -198.82699584960932 L 172.8990020751953 -199.38400268554682 L 172.9969940185547 -200.00199890136713 L 172.8990020751953 -200.61999511718744 M 218.38999938964844 -129.1730041503906 L 218.37600708007812 -129.14601135253903 L 218.1009979248047 -128.6159973144531 L 218.0019989013672 -127.99800109863278 L 218.1009979248047 -127.38000488281247 L 218.16107177734375 -127.26400756835935 L 218.37600708007812 -126.8490295410156 L 218.38999938964844 -126.82200622558591 L 218.83900451660156 -126.38000488281247 L 219.40499877929688 -126.0950012207031 L 220.0330047607422 -125.99800109863278 L 220.66099548339844 -126.0950012207031 L 221.2270050048828 -126.38000488281247 L 221.677001953125 -126.82200622558591 L 221.90513610839844 -127.26400756835935 L 221.96499633789062 -127.38000488281247 L 222.06500244140625 -127.99800109863278 L 221.96499633789062 -128.6159973144531 L 221.677001953125 -129.1730041503906 L 221.2270050048828 -129.6159973144531 L 220.66099548339844 -129.89999389648435 L 220.0330047607422 -129.99800109863278 L 219.40499877929688 -129.89999389648435 L 218.83900451660156 -129.6159973144531 L 218.38999938964844 -129.1730041503906 M 219.38400268554688 -198.10000610351557 L 220.0019989013672 -198.00199890136713 L 220.6199951171875 -198.10000610351557 L 221.17799377441406 -198.38400268554682 L 221.6199951171875 -198.82699584960932 L 221.9040069580078 -199.38400268554682 L 222.0019989013672 -200.00199890136713 L 221.9040069580078 -200.61999511718744 L 221.8612518310547 -200.7039947509765 L 221.6199951171875 -201.177993774414 L 221.17799377441406 -201.62100219726557 L 220.6199951171875 -201.90499877929682 L 220.0019989013672 -202.00300598144526 L 219.38400268554688 -201.90499877929682 L 218.8260040283203 -201.62100219726557 L 218.38400268554688 -201.177993774414 L 218.37600708007812 -201.16227722167963 L 218.1427459716797 -200.7039947509765 L 218.10000610351562 -200.61999511718744 L 218.0019989013672 -200.00199890136713 L 218.10000610351562 -199.38400268554682 L 218.37600708007812 -198.84269714355463 L 218.38400268554688 -198.82699584960932 L 218.8260040283203 -198.38400268554682 L 219.38400268554688 -198.10000610351557 z" fill="none" stroke="rgb(255,0,0)" stroke-width="0.001mm" />
</svg>



