<?xml version="1.0" standalone="no"?>
<!DOCTYPE svg PUBLIC "-//W3C//DTD SVG 1.1//EN"
  "http://www.w3.org/Graphics/SVG/1.1/DTD/svg11.dtd">
<svg width="76mm" height="75.99999999999997mm" viewBox="160 -207.99999999999994 76 75.99999999999997" xmlns="http://www.w3.org/2000/svg" version="1.1">
	<title>svgOutput</title>
	<desc>made with tinkercad</desc>
<path d="M 169 -122.99999999999997 L 169 -123.04956054687497 L 169 -123.08064270019528 L 168.68600463867188 -123.03399658203122 L 168 -122.99999999999997 L 167.31399536132812 -123.03399658203122 L 166.63400268554688 -123.13499450683591 L 165.96800231933594 -123.30099487304685 L 165.93499755859375 -123.31283569335935 L 165.3209991455078 -123.53300476074216 L 164.6999969482422 -123.82699584960935 L 164.11099243164062 -124.17999267578122 L 163.83999633789062 -124.38079833984372 L 163.5590057373047 -124.58900451660153 L 163.0500030517578 -125.05000305175778 L 162.58900451660156 -125.55900573730466 L 162.17999267578125 -126.1109924316406 L 161.82699584960938 -126.69999694824216 L 161.5330047607422 -127.32099914550778 L 161.30099487304688 -127.96800231933591 L 161.13499450683594 -128.63400268554685 L 161.0414276123047 -129.26400756835935 L 161.03399658203125 -129.3139953613281 L 161 -129.99999999999997 L 161 -130.45709228515622 L 161 -130.8243713378906 L 161 -131.19256591796872 L 161 -131.55317687988278 L 161 -131.92010498046872 L 161 -132.29643249511716 L 161 -132.6865539550781 L 161 -133.09332275390622 L 161 -133.5149230957031 L 161 -136.99999999999997 L 161 -192.99999999999994 L 161 -196.60800170898432 L 161 -199.99999999999994 L 161.03399658203125 -200.68600463867182 L 161.13499450683594 -201.36599731445307 L 161.30099487304688 -202.031997680664 L 161.5330047607422 -202.67900085449213 L 161.82699584960938 -203.30000305175776 L 162.17999267578125 -203.88900756835932 L 162.58900451660156 -204.44099426269526 L 163.0500030517578 -204.94999694824213 L 163.5590057373047 -205.41099548339838 L 163.83999633789062 -205.6192016601562 L 164.11099243164062 -205.8200073242187 L 164.6999969482422 -206.17300415039057 L 165.3209991455078 -206.46699523925776 L 165.96800231933594 -206.69900512695307 L 165.9980010986328 -206.70652770996088 L 166.63400268554688 -206.86599731445307 L 167.31399536132812 -206.9660034179687 L 168 -206.99999999999994 L 168.68600463867188 -206.9660034179687 L 169 -206.91983032226557 L 169 -206.957778930664 L 169 -206.99999999999994 L 169.19256591796875 -206.99999999999994 L 169.5531768798828 -206.99999999999994 L 169.92010498046875 -206.99999999999994 L 170.2964324951172 -206.99999999999994 L 172.03199768066406 -206.99999999999994 L 172.4213104248047 -206.99999999999994 L 172.91758728027344 -206.99999999999994 L 173.45327758789062 -206.99999999999994 L 174.0374755859375 -206.99999999999994 L 174.65306091308594 -206.99999999999994 L 175 -206.99999999999994 L 209.4 -206.99999999999994 L 216.4 -206.99999999999994 L 216.85480346679688 -206.99999999999994 L 217.23160400390626 -206.99999999999994 L 217.4 -206.99999999999994 L 217.4 -206.957778930664 L 217.4 -206.91983032226557 L 217.76599731445313 -206.86599731445307 L 217.77600708007813 -206.86349487304682 L 218.43199768066407 -206.69900512695307 L 219.0790008544922 -206.46699523925776 L 219.70000305175782 -206.17300415039057 L 220.28900756835938 -205.8200073242187 L 220.84099426269532 -205.41099548339838 L 221.3499969482422 -204.94999694824213 L 221.4858612060547 -204.80000305175776 L 221.81099548339844 -204.44099426269526 L 222.22000732421876 -203.88900756835932 L 222.57300415039063 -203.30000305175776 L 222.86699523925782 -202.67900085449213 L 223.09900512695313 -202.031997680664 L 223.26599731445313 -201.36599731445307 L 223.36600341796876 -200.68600463867182 L 223.4 -199.99999999999994 L 223.4 -199.54519653320307 L 223.4 -199.1683959960937 L 223.4 -198.8074340820312 L 223.4 -198.44682312011713 L 223.4 -198.0798950195312 L 223.4 -196.60800170898432 L 223.4 -196.48507690429682 L 223.4 -196.0444946289062 L 223.4 -195.57868957519526 L 223.4 -195.0824127197265 L 223.4 -194.53927612304682 L 223.4 -192.99999999999994 L 223.4 -136.99999999999997 L 223.4 -129.99999999999997 L 223.36600341796876 -129.3139953613281 L 223.35864868164063 -129.26400756835935 L 223.26599731445313 -128.63400268554685 L 223.10652770996094 -127.99800109863278 L 223.09900512695313 -127.96800231933591 L 222.86699523925782 -127.32099914550778 L 222.57300415039063 -126.69999694824216 L 222.22000732421876 -126.1109924316406 L 221.81099548339844 -125.55900573730466 L 221.3499969482422 -125.05000305175778 L 220.84099426269532 -124.58900451660153 L 220.28900756835938 -124.17999267578122 L 219.70000305175782 -123.82699584960935 L 219.0790008544922 -123.53300476074216 L 218.43199768066407 -123.30099487304685 L 217.77600708007813 -123.13749694824216 L 217.76599731445313 -123.13499450683591 L 217.4 -123.08064270019528 L 217.4 -123.04956054687497 L 217.4 -122.99999999999997 L 216.4 -122.99999999999997 L 215.94290771484376 -122.99999999999997 L 215.57562866210938 -122.99999999999997 L 215.20743408203126 -122.99999999999997 L 214.8468231201172 -122.99999999999997 L 213.67999877929688 -122.99999999999997 L 213.30667724609376 -122.99999999999997 L 212.88507690429688 -122.99999999999997 L 212.44449462890626 -122.99999999999997 L 211.97868957519532 -122.99999999999997 L 211.48241271972657 -122.99999999999997 L 210.93927612304688 -122.99999999999997 L 209.5840057373047 -122.99999999999997 L 209.4 -122.99999999999997 L 175 -122.99999999999997 L 172.03199768066406 -122.99999999999997 L 169 -122.99999999999997 M 167.38099670410156 -198.09599304199213 L 168 -197.99800109863276 L 168.61900329589844 -198.09599304199213 L 169.177001953125 -198.38000488281244 L 169.6199951171875 -198.82299804687494 L 169.90499877929688 -199.3809967041015 L 170.0030059814453 -199.99999999999994 L 169.90499877929688 -200.61900329589838 L 169.86158752441406 -200.7039947509765 L 169.6199951171875 -201.17700195312494 L 169.177001953125 -201.61999511718744 L 168.61900329589844 -201.90499877929682 L 168 -202.00300598144526 L 167.38099670410156 -201.90499877929682 L 166.822998046875 -201.61999511718744 L 166.3800048828125 -201.17700195312494 L 166.13926696777344 -200.7039947509765 L 166.0959930419922 -200.61900329589838 L 165.9980010986328 -199.99999999999994 L 166.0959930419922 -199.3809967041015 L 166.3800048828125 -198.82299804687494 L 166.822998046875 -198.38000488281244 L 167.38099670410156 -198.09599304199213 M 166.0953826904297 -129.26400756835935 L 166.322998046875 -128.82299804687497 L 166.7729949951172 -128.38000488281247 L 167.33999633789062 -128.09599304199216 L 167.93600463867188 -128.00314331054685 L 167.968994140625 -127.99800109863278 L 168.5970001220703 -128.09599304199216 L 169.16400146484375 -128.38000488281247 L 169.61399841308594 -128.82299804687497 L 169.8424072265625 -129.26400756835935 L 169.9029998779297 -129.38099670410153 L 170.0030059814453 -129.99999999999997 L 169.9029998779297 -130.6190032958984 L 169.61399841308594 -131.17700195312497 L 169.16400146484375 -131.61999511718747 L 168.5970001220703 -131.90499877929685 L 167.968994140625 -132.00300598144528 L 167.93600463867188 -131.99786376953122 L 167.33999633789062 -131.90499877929685 L 166.7729949951172 -131.61999511718747 L 166.322998046875 -131.17700195312497 L 166.03500366210938 -130.6190032958984 L 165.93499755859375 -129.99999999999997 L 166.03500366210938 -129.38099670410153 L 166.0953826904297 -129.26400756835935 M 218.30499877929688 -200.61900329589838 L 218.26158752441407 -200.7039947509765 L 218.0199951171875 -201.17700195312494 L 217.77600708007813 -201.42100524902338 L 217.577001953125 -201.61999511718744 L 217.01900329589844 -201.90499877929682 L 216.4 -202.00300598144526 L 215.78099670410157 -201.90499877929682 L 215.222998046875 -201.61999511718744 L 214.7800048828125 -201.17700195312494 L 214.53926696777344 -200.7039947509765 L 214.4959930419922 -200.61900329589838 L 214.39800109863282 -199.99999999999994 L 214.4959930419922 -199.3809967041015 L 214.7800048828125 -198.82299804687494 L 215.222998046875 -198.38000488281244 L 215.78099670410157 -198.09599304199213 L 216.4 -197.99800109863276 L 217.01900329589844 -198.09599304199213 L 217.577001953125 -198.38000488281244 L 217.77600708007813 -198.5789947509765 L 218.0199951171875 -198.82299804687494 L 218.30499877929688 -199.3809967041015 L 218.40300598144532 -199.99999999999994 L 218.30499877929688 -200.61900329589838 M 218.077001953125 -131.17700195312497 L 217.77600708007813 -131.47331237792966 L 217.62700500488282 -131.61999511718747 L 217.06000366210938 -131.90499877929685 L 216.431005859375 -132.00300598144528 L 215.8029998779297 -131.90499877929685 L 215.23599853515626 -131.61999511718747 L 214.78600158691407 -131.17700195312497 L 214.49700012207032 -130.6190032958984 L 214.39800109863282 -129.99999999999997 L 214.49700012207032 -129.38099670410153 L 214.5575927734375 -129.26400756835935 L 214.78600158691407 -128.82299804687497 L 215.23599853515626 -128.38000488281247 L 215.8029998779297 -128.09599304199216 L 216.431005859375 -127.99800109863278 L 217.06000366210938 -128.09599304199216 L 217.62700500488282 -128.38000488281247 L 217.77600708007813 -128.52668762207028 L 218.077001953125 -128.82299804687497 L 218.30461730957032 -129.26400756835935 L 218.36499633789063 -129.38099670410153 L 218.46500244140626 -129.99999999999997 L 218.36499633789063 -130.6190032958984 L 218.077001953125 -131.17700195312497 z" fill="none" stroke="rgb(255,0,0)" stroke-width="0.001mm" />
</svg>



