<?xml version="1.0" standalone="no"?>
<!DOCTYPE svg PUBLIC "-//W3C//DTD SVG 1.1//EN"
  "http://www.w3.org/Graphics/SVG/1.1/DTD/svg11.dtd">
<svg width="76mm" height="75.99999999999997mm" viewBox="160 -207.99999999999994 76 75.99999999999997" xmlns="http://www.w3.org/2000/svg" version="1.1">
	<title>svgOutput</title>
	<desc>made with tinkercad</desc>
<path d="M 169 -120.99999999999997 L 169 -121.04956054687497 L 169 -121.08064270019528 L 168.68600463867188 -121.03399658203122 L 168 -120.99999999999997 L 167.31399536132812 -121.03399658203122 L 166.63400268554688 -121.13499450683591 L 165.96800231933594 -121.30099487304685 L 165.93499755859375 -121.31283569335935 L 165.3209991455078 -121.53300476074216 L 164.6999969482422 -121.82699584960935 L 164.11099243164062 -122.17999267578122 L 163.83999633789062 -122.38079833984372 L 163.5590057373047 -122.58900451660153 L 163.0500030517578 -123.05000305175778 L 162.58900451660156 -123.55900573730466 L 162.17999267578125 -124.1109924316406 L 161.82699584960938 -124.69999694824216 L 161.5330047607422 -125.32099914550778 L 161.30099487304688 -125.96800231933591 L 161.13499450683594 -126.63400268554685 L 161.0414276123047 -127.26400756835935 L 161.03399658203125 -127.3139953613281 L 161 -127.99999999999997 L 161 -128.45709228515622 L 161 -128.8243713378906 L 161 -129.19256591796872 L 161 -129.55317687988278 L 161 -129.92010498046872 L 161 -130.29643249511716 L 161 -130.6865539550781 L 161 -131.09332275390622 L 161 -131.5149230957031 L 161 -134.99999999999997 L 161 -192.99999999999994 L 161 -196.60800170898432 L 161 -199.99999999999994 L 161.03399658203125 -200.68600463867182 L 161.13499450683594 -201.36599731445307 L 161.30099487304688 -202.031997680664 L 161.5330047607422 -202.67900085449213 L 161.82699584960938 -203.30000305175776 L 162.17999267578125 -203.88900756835932 L 162.58900451660156 -204.44099426269526 L 163.0500030517578 -204.94999694824213 L 163.5590057373047 -205.41099548339838 L 163.83999633789062 -205.6192016601562 L 164.11099243164062 -205.8200073242187 L 164.6999969482422 -206.17300415039057 L 165.3209991455078 -206.46699523925776 L 165.96800231933594 -206.69900512695307 L 165.9980010986328 -206.70652770996088 L 166.63400268554688 -206.86599731445307 L 167.31399536132812 -206.9660034179687 L 168 -206.99999999999994 L 168.68600463867188 -206.9660034179687 L 169 -206.91983032226557 L 169 -206.957778930664 L 169 -206.99999999999994 L 169.19256591796875 -206.99999999999994 L 169.5531768798828 -206.99999999999994 L 169.92010498046875 -206.99999999999994 L 170.2964324951172 -206.99999999999994 L 172.03199768066406 -206.99999999999994 L 172.4213104248047 -206.99999999999994 L 172.91758728027344 -206.99999999999994 L 173.45327758789062 -206.99999999999994 L 174.0374755859375 -206.99999999999994 L 174.65306091308594 -206.99999999999994 L 175 -206.99999999999994 L 210 -206.99999999999994 L 217 -206.99999999999994 L 217.45480346679688 -206.99999999999994 L 217.83160400390625 -206.99999999999994 L 218 -206.99999999999994 L 218 -206.957778930664 L 218 -206.91983032226557 L 218.36599731445312 -206.86599731445307 L 218.37600708007812 -206.86349487304682 L 219.03199768066406 -206.69900512695307 L 219.6790008544922 -206.46699523925776 L 220.3000030517578 -206.17300415039057 L 220.88900756835938 -205.8200073242187 L 221.4409942626953 -205.41099548339838 L 221.9499969482422 -204.94999694824213 L 222.0858612060547 -204.80000305175776 L 222.41099548339844 -204.44099426269526 L 222.82000732421875 -203.88900756835932 L 223.17300415039062 -203.30000305175776 L 223.4669952392578 -202.67900085449213 L 223.69900512695312 -202.031997680664 L 223.86599731445312 -201.36599731445307 L 223.96600341796875 -200.68600463867182 L 224 -199.99999999999994 L 224 -199.54519653320307 L 224 -199.1683959960937 L 224 -198.8074340820312 L 224 -198.44682312011713 L 224 -198.0798950195312 L 224 -196.60800170898432 L 224 -196.48507690429682 L 224 -196.0444946289062 L 224 -195.57868957519526 L 224 -195.0824127197265 L 224 -194.53927612304682 L 224 -192.99999999999994 L 224 -134.99999999999997 L 224 -127.99999999999997 L 223.96600341796875 -127.3139953613281 L 223.95864868164062 -127.26400756835935 L 223.86599731445312 -126.63400268554685 L 223.70652770996094 -125.99800109863278 L 223.69900512695312 -125.96800231933591 L 223.4669952392578 -125.32099914550778 L 223.17300415039062 -124.69999694824216 L 222.82000732421875 -124.1109924316406 L 222.41099548339844 -123.55900573730466 L 221.9499969482422 -123.05000305175778 L 221.4409942626953 -122.58900451660153 L 220.88900756835938 -122.17999267578122 L 220.3000030517578 -121.82699584960935 L 219.6790008544922 -121.53300476074216 L 219.03199768066406 -121.30099487304685 L 218.37600708007812 -121.13749694824216 L 218.36599731445312 -121.13499450683591 L 218 -121.08064270019528 L 218 -121.04956054687497 L 218 -120.99999999999997 L 217 -120.99999999999997 L 216.54290771484375 -120.99999999999997 L 216.17562866210938 -120.99999999999997 L 215.80743408203125 -120.99999999999997 L 215.4468231201172 -120.99999999999997 L 214.27999877929688 -120.99999999999997 L 213.90667724609375 -120.99999999999997 L 213.48507690429688 -120.99999999999997 L 213.04449462890625 -120.99999999999997 L 212.5786895751953 -120.99999999999997 L 212.08241271972656 -120.99999999999997 L 211.53927612304688 -120.99999999999997 L 210.1840057373047 -120.99999999999997 L 210 -120.99999999999997 L 175 -120.99999999999997 L 172.03199768066406 -120.99999999999997 L 169 -120.99999999999997 M 167.38099670410156 -198.09599304199213 L 168 -197.99800109863276 L 168.61900329589844 -198.09599304199213 L 169.177001953125 -198.38000488281244 L 169.6199951171875 -198.82299804687494 L 169.90499877929688 -199.3809967041015 L 170.0030059814453 -199.99999999999994 L 169.90499877929688 -200.61900329589838 L 169.86158752441406 -200.7039947509765 L 169.6199951171875 -201.17700195312494 L 169.177001953125 -201.61999511718744 L 168.61900329589844 -201.90499877929682 L 168 -202.00300598144526 L 167.38099670410156 -201.90499877929682 L 166.822998046875 -201.61999511718744 L 166.3800048828125 -201.17700195312494 L 166.13926696777344 -200.7039947509765 L 166.0959930419922 -200.61900329589838 L 165.9980010986328 -199.99999999999994 L 166.0959930419922 -199.3809967041015 L 166.3800048828125 -198.82299804687494 L 166.822998046875 -198.38000488281244 L 167.38099670410156 -198.09599304199213 M 166.0953826904297 -127.26400756835935 L 166.322998046875 -126.82299804687497 L 166.7729949951172 -126.38000488281247 L 167.33999633789062 -126.09599304199216 L 167.93600463867188 -126.00314331054685 L 167.968994140625 -125.99800109863278 L 168.5970001220703 -126.09599304199216 L 169.16400146484375 -126.38000488281247 L 169.61399841308594 -126.82299804687497 L 169.8424072265625 -127.26400756835935 L 169.9029998779297 -127.38099670410153 L 170.0030059814453 -127.99999999999997 L 169.9029998779297 -128.6190032958984 L 169.61399841308594 -129.17700195312497 L 169.16400146484375 -129.61999511718747 L 168.5970001220703 -129.90499877929685 L 167.968994140625 -130.00300598144528 L 167.93600463867188 -129.99786376953122 L 167.33999633789062 -129.90499877929685 L 166.7729949951172 -129.61999511718747 L 166.322998046875 -129.17700195312497 L 166.03500366210938 -128.6190032958984 L 165.93499755859375 -127.99999999999997 L 166.03500366210938 -127.38099670410153 L 166.0953826904297 -127.26400756835935 M 218.90499877929688 -200.61900329589838 L 218.86158752441406 -200.7039947509765 L 218.6199951171875 -201.17700195312494 L 218.37600708007812 -201.42100524902338 L 218.177001953125 -201.61999511718744 L 217.61900329589844 -201.90499877929682 L 217 -202.00300598144526 L 216.38099670410156 -201.90499877929682 L 215.822998046875 -201.61999511718744 L 215.3800048828125 -201.17700195312494 L 215.13926696777344 -200.7039947509765 L 215.0959930419922 -200.61900329589838 L 214.9980010986328 -199.99999999999994 L 215.0959930419922 -199.3809967041015 L 215.3800048828125 -198.82299804687494 L 215.822998046875 -198.38000488281244 L 216.38099670410156 -198.09599304199213 L 217 -197.99800109863276 L 217.61900329589844 -198.09599304199213 L 218.177001953125 -198.38000488281244 L 218.37600708007812 -198.5789947509765 L 218.6199951171875 -198.82299804687494 L 218.90499877929688 -199.3809967041015 L 219.0030059814453 -199.99999999999994 L 218.90499877929688 -200.61900329589838 M 218.677001953125 -129.17700195312497 L 218.37600708007812 -129.47331237792966 L 218.2270050048828 -129.61999511718747 L 217.66000366210938 -129.90499877929685 L 217.031005859375 -130.00300598144528 L 216.4029998779297 -129.90499877929685 L 215.83599853515625 -129.61999511718747 L 215.38600158691406 -129.17700195312497 L 215.0970001220703 -128.6190032958984 L 214.9980010986328 -127.99999999999997 L 215.0970001220703 -127.38099670410153 L 215.1575927734375 -127.26400756835935 L 215.38600158691406 -126.82299804687497 L 215.83599853515625 -126.38000488281247 L 216.4029998779297 -126.09599304199216 L 217.031005859375 -125.99800109863278 L 217.66000366210938 -126.09599304199216 L 218.2270050048828 -126.38000488281247 L 218.37600708007812 -126.52668762207028 L 218.677001953125 -126.82299804687497 L 218.9046173095703 -127.26400756835935 L 218.96499633789062 -127.38099670410153 L 219.06500244140625 -127.99999999999997 L 218.96499633789062 -128.6190032958984 L 218.677001953125 -129.17700195312497 z" fill="none" stroke="rgb(255,0,0)" stroke-width="0.001mm" />
</svg>



